<svg width="1184" height="792" viewBox="0 0 1184 792" fill="none" xmlns="http://www.w3.org/2000/svg">
<g clip-path="url(#clip0_5_33)">
<mask id="mask0_5_33" style="mask-type:luminance" maskUnits="userSpaceOnUse" x="0" y="0" width="1184" height="792">
<path d="M1184 0H0V792H1184V0Z" fill="white"/>
</mask>
<g mask="url(#mask0_5_33)">
<mask id="mask1_5_33" style="mask-type:luminance" maskUnits="userSpaceOnUse" x="0" y="0" width="1184" height="792">
<path d="M1184 0H0V792H1184V0Z" fill="white"/>
</mask>
<g mask="url(#mask1_5_33)">
<g style="mix-blend-mode:overlay">
<path opacity="0.3" d="M7.67 816.99L2.32001 807.35L-71.24 675L-141.9 535.04L-155.28 420.6L-156.87 398.3" stroke="#E5E7EB" stroke-linecap="round" stroke-linejoin="round"/>
<path opacity="0.3" d="M43.16 816.99L-24.13 695.27L-95.59 553.56L-112.36 444.25L-123.21 345.28L-127.43 332.95L-156.87 247.03" stroke="#E5E7EB" stroke-linecap="round" stroke-linejoin="round"/>
<path opacity="0.3" d="M130.69 816.99L120.75 797.04L70.91 697.07L62.4 678.37L5.1 552.43L-1.67 535.83L-49.96 417.55L-54.79 403.96L-94.75 291.5L-99.62 211.62L-100.75 138.25L-98.9 70.55L-94.32 8.02001L-97.62 -24.99" stroke="#E5E7EB" stroke-linecap="round" stroke-linejoin="round"/>
<path opacity="0.3" d="M159.67 816.99L152.46 799.53L123.76 730.73L120.92 723.65L120.68 722.47L111.22 699.6L107.59 688.56L94.94 653.87L83.5 623.48L82 619.41L73.55 594.38L60.34 555.19L56.53 543.92L55.59 540.96L53.07 533.65L39 493.23L33.42 475.41L28.5 453.01L28.48 449.68L17.89 415.05L15.21 405.43L9.17002 380.51L1.06002 347.09L-0.00998306 339.81L-2.75998 326.24L-2.82998 323.89L-2.77998 322.29L-3.11998 320.73L-3.38998 319.5L-4.45998 316.19L-5.79998 311.9L-6.25998 308.37L-6.74998 305.39L-8.19998 299.37L-9.61998 291.81L-10.44 287.49L-11.21 283.28L-13.06 273.95L-15.41 264.41L-18.14 254.39L-20.64 242.6L-23.32 229.94L-26.39 215.5L-29.59 188.01L-33.11 157.86L-34.66 139.6L-37.12 110.41L-37.7 103.61L-38.88 81.46L-38.65 77.92L-38.27 76.94L-39.16 63.54L-40.44 52.39L-41.17 21.89L-40.99 20.96L-40.92 16.06L-41.11 6.99L-41.18 4.6L-41.1 -4.8L-41.03 -18.02L-40.95 -20.68L-40.91 -24.76L-40.9 -24.99" stroke="#E5E7EB" stroke-linecap="round" stroke-linejoin="round"/>
<path opacity="0.3" d="M9.64 816.99L-24.13 695.27L-51.52 579.2L-58.1 564.61L-112.36 444.25L-117.96 430.14L-156.87 332.06" stroke="#E5E7EB" stroke-linecap="round" stroke-linejoin="round"/>
<path opacity="0.3" d="M156.53 816.99L152.91 808.98L125.96 749.36L111.35 717.06L99.14 687.59L94.06 675.31L71.44 620.73L49.72 568.29L42.11 547.76L18.57 484.24L-1.37 430.43L-16.31 354.65L-27.61 284.29L-35.92 218.69L-41.52 157.45L-44.84 100.06L-46.06 46.21L-45.51 -4.49L-44.54 -24.99" stroke="#E5E7EB" stroke-linecap="round" stroke-linejoin="round"/>
<path opacity="0.3" d="M72.53 816.99L21.06 723.33L12.2 705.74L-51.52 579.2L-71.55 474.18L-85.75 378.64L-94.75 291.5L-98.59 278.71L-130.19 173.33L-156.61 62.47L-147.79 -8.17L-149.79 -24.99" stroke="#E5E7EB" stroke-linecap="round" stroke-linejoin="round"/>
<path opacity="0.3" d="M299.22 816.99L277.8 713.54L269.32 614.76L272.39 523.01L253.56 484.15L271.58 401.48L259.36 365.2L248.63 330.14L239.11 297.05L230.54 265.64L222.52 236.6L214.8 209.69L206.91 185.53L198.61 163.92L189.44 145.43L179.17 129.91L167.4 117.88L153.97 109.25L138.57 104.51L121.16 103.64L120.25 103.8" stroke="#E5E7EB" stroke-linecap="round" stroke-linejoin="round"/>
<path opacity="0.3" d="M50.28 816.99L21.06 723.33L-9.28999 611.7L-32.49 510.24L-85.75 378.64L-90.22 365.83L-128.77 255.4L-132.37 243.07L-156.87 158.97" stroke="#E5E7EB" stroke-linecap="round" stroke-linejoin="round"/>
<path opacity="0.3" d="M-23.78 211.33L21.14 127.84L72.2 51.09L127.94 -18.02L134.71 -24.99" stroke="#E5E7EB" stroke-linecap="round" stroke-linejoin="round"/>
<path opacity="0.3" d="M430.51 816.99L403.61 726.46L388.55 639.62L384.56 558.82L390.05 484.06L403.87 416.26L393.71 377.77L385.55 340.6L379.16 304.26L374.29 269.4L370.77 235.56L368.26 203.34L366.63 172.34L365.47 143.13L364.62 115.37L363.63 89.56L362.33 65.43L360.23 43.4L357.15 23.3L352.61 5.48L346.43 -10.17L338.17 -23.32L336.54 -24.99" stroke="#E5E7EB" stroke-linecap="round" stroke-linejoin="round"/>
<path opacity="0.3" d="M94.94 653.87L98.78 560L115.01 457.84L98.61 429.62L82.98 404.8L67.76 383.22L102.22 293.99L143.3 214.75L189.44 145.43L239.43 85.11L292.04 33.54L346.43 -10.17L369 -24.99" stroke="#E5E7EB" stroke-linecap="round" stroke-linejoin="round"/>
<path opacity="0.3" d="M-7.95001 298.8L27.65 218.65L72.7 138.57L93.53 108.57L97.75 102.47L122.77 66.43L136.97 49.6L177.23 1.9L204.64 -24.99" stroke="#E5E7EB" stroke-linecap="round" stroke-linejoin="round"/>
<path opacity="0.3" d="M28.52 449.57L52.6 365.63L89.04 276.87L131.7 198.6L179.17 129.91L230.07 70.55L283.43 19.6L338.17 -23.32L340.76 -24.99" stroke="#E5E7EB" stroke-linecap="round" stroke-linejoin="round"/>
<path opacity="0.3" d="M-38.27 76.94L10.68 6.23L27.88 -2.11L28.93 -3.34L47.38 -24.99" stroke="#E5E7EB" stroke-linecap="round" stroke-linejoin="round"/>
<path opacity="0.3" d="M380.33 816.99L357.77 737.01L343.2 644.42L340.03 557.81L347.02 478.3L331.72 438.92L318.56 400.73L307.26 363.29L297.63 327.34L289.44 292.5L282.39 259.48L276.26 227.93L270.65 198.51L265.34 170.95L259.87 145.82L254 122.9L247.26 102.73L239.43 85.11L230.07 70.55L219.01 58.92L205.88 50.67L190.59 45.78L172.9 44.68L168.21 45.33" stroke="#E5E7EB" stroke-linecap="round" stroke-linejoin="round"/>
<path opacity="0.3" d="M183.85 27.21L185.53 25.27L186.45 24.55L187.34 23.21L187.97 20.38L188.41 18.84L187.92 15.37L186.99 12.77L185.43 10.16L183.31 7.45L180.55 4.71L177.23 1.9L173.28 -0.900003L168.76 -3.76L163.59 -6.52L157.83 -9.28L151.37 -11.81L144.29 -14.24L136.45 -16.25L127.94 -18.02L118.57 -19.12L62.83 50.51L62.41 51.15L12.19 127.42L11.68 128.2L-25.53 197.83" stroke="#E5E7EB" stroke-linecap="round" stroke-linejoin="round"/>
<path opacity="0.3" d="M-9.53003 291.63L23.35 217.28L68.47 136.7L118.68 64.05L130.03 50.56L173.28 -0.899996L197.72 -24.99" stroke="#E5E7EB" stroke-linecap="round" stroke-linejoin="round"/>
<path opacity="0.3" d="M245.33 816.99L229.3 739.33L220.01 633.49L194.98 594.96L172.17 557.55L151.47 522.16L132.5 488.63L115.01 457.84L140.87 365.35L174.65 282.89L214.8 209.69L259.87 145.82L308.75 90.44L360.23 43.4L413.55 3.89L462.03 -24.99" stroke="#E5E7EB" stroke-linecap="round" stroke-linejoin="round"/>
<path opacity="0.3" d="M162.37 816.99L149.59 739.17L120.67 704.44L120.56 591.93L98.78 560L78.61 531.16L98.61 429.62L127.79 338.51L164.42 257.11L206.91 185.53L254 122.9L304.38 69.11L357.15 23.3L411.28 -14.82L429.16 -24.99" stroke="#E5E7EB" stroke-linecap="round" stroke-linejoin="round"/>
<path opacity="0.3" d="M142.55 816.99L109.41 750.11L99.36 728.01L41.49 600.81L33.83 582.19L-15.58 462.03L-20.94 447.2L-62.32 332.65L-70.56 254.52L-75.1 182.49L-76.64 115.79L-75.46 53.94L-72.05 -3.64L-73.48 -24.99" stroke="#E5E7EB" stroke-linecap="round" stroke-linejoin="round"/>
<path opacity="0.3" d="M-11.21 283.28L18.4 216L63.63 134.86L113.96 61.74L122.45 51.59L168.76 -3.76L190.21 -24.99" stroke="#E5E7EB" stroke-linecap="round" stroke-linejoin="round"/>
<path opacity="0.3" d="M-40.15 33.64L3.43996 -24.99" stroke="#E5E7EB" stroke-linecap="round" stroke-linejoin="round"/>
<path opacity="0.3" d="M-34.32 122.72L3.52998 61.18L4.78998 59.49L58.81 -13.15L72.62 -16.31L80.51 -24.99" stroke="#E5E7EB" stroke-linecap="round" stroke-linejoin="round"/>
<path opacity="0.3" d="M134.9 816.99L109.41 750.11L76.85 655.59L70.33 634.62L49.72 568.29L36.34 519.82L27.41 487.45L20.48 466.38L11 437.59L0.809982 406.63L-16.31 354.65L-20.68 338.94L-36.98 280.52L-50.75 231.11L-53.8 217.54L-76.64 115.79L-94.32 8.02001L-90.47 -24.99" stroke="#E5E7EB" stroke-linecap="round" stroke-linejoin="round"/>
<path opacity="0.3" d="M96.36 816.99L64.69 758.96L55.2 740.05L-9.29 611.7L-16.27 596.29L-71.55 474.18L-77.39 459.6L-123.21 345.28L-128.77 255.4L-130.19 173.33L-127.85 98.27L-122.56 29.26L-115.72 -24.99" stroke="#E5E7EB" stroke-linecap="round" stroke-linejoin="round"/>
<path opacity="0.3" d="M1011.44 816.99L952.34 789.92L949.58 788.26L892.72 754.15L839.9 714.02L837.27 711.5L794.96 671.05L791.91 667.39L757.32 625.95L727.42 580.2L704.42 534.24L688.25 489.31L678.02 445.54L673.3 403.89L673.26 364.19L677.29 327.13L684.74 292.36L694.92 260.28L707.36 230.45L721.41 203.1L736.77 177.75L752.83 154.49L769.46 132.88L786.09 112.91L802.7 94.22L818.8 76.72L834.39 60.14L849.08 44.37L862.83 29.19L875.34 14.48L886.5 0.110004L896.12 -14.06L902.22 -24.99" stroke="#E5E7EB" stroke-linecap="round" stroke-linejoin="round"/>
<path opacity="0.3" d="M327.81 816.99L310.87 754.35L296.08 655.17L269.32 614.76L244.99 574.68L223.12 535.8L203.35 497.88L185.56 461.79L208.4 374.78L239.11 297.05L276.26 227.93L318.45 167.63L364.62 115.37L413.59 71.15L414.35 70.61L464.61 34.19L465.39 33.74L516.7 4.30001L517.83 3.8L569.33 -19.21L570.45 -24.99" stroke="#E5E7EB" stroke-linecap="round" stroke-linejoin="round"/>
<path opacity="0.3" d="M-12.94 273.69L12.83 214.81L58.16 133.15L108.64 59.44L163.59 -6.52L182.15 -24.99" stroke="#E5E7EB" stroke-linecap="round" stroke-linejoin="round"/>
<path opacity="0.3" d="M73.57 594.21L78.61 531.16L59.65 505.3L82.98 404.8L115.03 314.48L102.22 293.99L89.04 276.87L75.15 263.79L60.31 254.61L44.26 249.96L31.15 249.81" stroke="#E5E7EB" stroke-linecap="round" stroke-linejoin="round"/>
<path opacity="0.3" d="M18.79 412.13L37.2 351.9L75.15 263.79L119.06 185.85L167.4 117.88L219.01 58.92L272.71 8.58L316.06 -24.99" stroke="#E5E7EB" stroke-linecap="round" stroke-linejoin="round"/>
<path opacity="0.3" d="M-27.34 183.75L1.53008 129.05L2.88007 126.99L52.63 50.8L53.33 49.92L108.48 -19.81L118.57 -19.12L124.21 -24.99" stroke="#E5E7EB" stroke-linecap="round" stroke-linejoin="round"/>
<path opacity="0.3" d="M84.82 816.99L64.69 758.96L31.42 650.99L23.84 634.3L-32.49 510.24L-49.96 417.55L-62.32 332.65L-66.5 319.1L-99.62 211.62L-127.85 98.27L-147.79 -8.17L-144.8 -24.99" stroke="#E5E7EB" stroke-linecap="round" stroke-linejoin="round"/>
<path opacity="0.3" d="M504.32 816.99L482.78 762.87L461.04 682.46L450.12 606.99L448.52 536.61L455.24 472.28L468.94 413.74L488.64 361.66L484.7 324.12L482.79 288.26L482.63 253.57L483.88 220.52L486.39 188.62L489.79 158.32L493.99 129.17L498.56 101.56L503.46 75.14L508.22 50.22L512.79 26.52L516.7 4.30001L519.83 -16.63L540.08 -24.99" stroke="#E5E7EB" stroke-linecap="round" stroke-linejoin="round"/>
<path opacity="0.3" d="M1340.24 737.26L1308.88 738.76L1283.3 739.98L1271.75 741.36L1216.78 736.66L1198.11 732.88L1192.76 731.79L1166.38 726.45L1166.19 726.41L1164.63 725.92L1148.3 719.83L1136.1 715.34L1133.69 714.64L1121.75 709.77L1121.95 708.68L1108.18 702.99L1095 695.82L1089.08 692.55L1082.66 688.54L1081.77 686.94L1071.01 680.87L1068.4 679.2L1066.61 677.62L1061.83 674.32L1061.81 674.3L1060.61 673.5L1055.41 669.86L1054.12 669.13L1048.36 665.01L1045.14 663.83L1033.56 656.54L1018.64 645.15L1017.4 643.77L1000.88 625.39L1000.04 624.46L986.42 604.27L978.01 585.28L973.94 567.9L974.15 552.61L977.77 539.6L984.62 529.05L993.93 520.97L1005.49 515.29L1018.7 511.83L1033.37 510.34L1049.12 510.51L1065.87 511.94L1083.36 514.27L1101.64 516.99L1120.57 519.73L1140.19 521.94L1160.44 523.21L1181.32 523.02L1202.72 520.94L1224.52 516.51L1246.49 509.3L1268.38 498.99L1289.77 485.15L1310.24 467.71L1329.23 446.31L1321.94 424.19L1314.28 401.38L1306.16 378.22L1297.32 354.45L1287.74 330.4L1277.05 305.84L1265.31 281.14L1252.09 256.07L1237.48 231.03L1221.05 205.86L1202.94 180.94L1182.67 156.22L1160.44 132.07L1135.79 108.54L1108.97 85.99L1079.57 64.57L1047.85 44.65L1013.51 26.47L976.8 10.4L937.59 -3.24L896.12 -14.06L852.41 -21.68L814.82 -24.99" stroke="#E5E7EB" stroke-linecap="round" stroke-linejoin="round"/>
<path opacity="0.3" d="M1340.87 801.35L1283.96 804.38L1211.05 799.86L1199.4 790.05L1190.54 780.89L1183.23 772.68L1178.58 765.22L1175.33 758.8L1173.97 758.44L1115.08 743.01L1059.24 721.54L1009.85 695.28L966.41 665.23L930.37 632.59L900.97 598.21L879.02 563.37L863.59 528.66L854.89 495.25L851.95 463.44L854.52 434.11L861.69 407.3L872.93 383.55L887.46 362.7L904.64 344.92L923.89 329.93L944.57 317.62L966.27 307.62L988.48 299.61L1010.92 293.22L1033.21 288.01L1055.19 283.62L1076.58 279.59L1097.3 275.59L1117.16 271.19L1136.05 266.08L1153.85 259.95L1170.38 252.52L1185.6 243.58L1199.18 232.88L1211.15 220.4L1221.05 205.86L1228.96 189.44L1234.29 170.89L1237.18 150.57L1236.93 128.25L1233.82 104.49L1227 79.09L1216.94 52.75L1202.72 25.36L1184.97 -2.28999L1166.89 -24.99" stroke="#E5E7EB" stroke-linecap="round" stroke-linejoin="round"/>
<path opacity="0.3" d="M-38.87 63.12L-7.46 16.09L10.68 6.23L12.78 3.69L36.46 -24.99" stroke="#E5E7EB" stroke-linecap="round" stroke-linejoin="round"/>
<path opacity="0.3" d="M550.32 816.99L527.83 765.13L505.34 690.82L492.72 620.53L489.1 555.3L493.13 495.1L503.92 440.68L520.29 391.69L541.37 348.67L540.48 311.25L541.8 275.8L545 241.8L549.68 209.67L555.65 178.9L562.48 149.84L570.08 122.03L578.01 95.75L586.25 70.64L594.34 46.91L602.26 24.27L609.57 2.89L616.2 -17.46L618.38 -24.99" stroke="#E5E7EB" stroke-linecap="round" stroke-linejoin="round"/>
<path opacity="0.3" d="M-14.86 263.13L6.62002 213.83L52.06 131.51L102.67 57.3L157.83 -9.28L173.53 -24.99" stroke="#E5E7EB" stroke-linecap="round" stroke-linejoin="round"/>
<path opacity="0.3" d="M456.67 816.99L438.04 767.06L417.01 680.91L407.13 599.69L407.38 524.56L416.21 455.43L432.54 393.13L424.65 355.04L418.74 318.37L414.58 282.63L411.88 248.39L410.49 215.19L410.07 183.56L410.49 153.11L411.35 124.32L412.54 96.86L413.59 71.15L414.38 46.94L414.42 24.58L413.55 3.89L411.28 -14.82L408.97 -24.99" stroke="#E5E7EB" stroke-linecap="round" stroke-linejoin="round"/>
<path opacity="0.3" d="M814.92 816.99L774.62 787.04L767.6 780.74L725.78 743.2L719.7 736.62L683.84 697.89L677.97 690.29L648.15 651.61L618.68 605.39L614.24 596.87L594.69 559.4L575.93 514.51L561.66 470.62L551.52 428.41L544.89 387.57L541.37 348.67L566.25 311.07L594.08 279.26L624.19 252.61L655.8 231.34L688.44 214.81L721.41 203.1L754.4 195.62L786.78 192.33L805.22 171.26L823.95 152.13L842.88 134.52L861.47 118.31L879.68 103.16L897.11 88.9L913.7 75.27L929.15 62.08L943.37 49.16L956.16 36.33L967.33 23.45L976.8 10.4L984.27 -2.92L989.76 -16.59L991.59 -24.99" stroke="#E5E7EB" stroke-linecap="round" stroke-linejoin="round"/>
<path opacity="0.3" d="M846.26 816.99L806.27 789.4L755.07 746.22L711.06 701.15L705.72 694.53L673.64 654.75L669.25 648.1L642.88 608.17L618.01 561.68L598.8 516.22L584.47 471.75L574.65 429.03L568.65 387.78L566.02 348.61L590.46 314.78L617.45 286.43L646.35 262.92L676.47 244.47L707.36 230.45L738.39 220.95L754.4 195.62L771.32 172.54L788.95 151.26L806.72 131.76L824.55 113.65L841.95 96.82L858.89 80.96L874.97 65.94L890.16 51.51L904.15 37.54L916.86 23.84L928.07 10.29L937.59 -3.24L945.34 -16.84L948.68 -24.99" stroke="#E5E7EB" stroke-linecap="round" stroke-linejoin="round"/>
<path opacity="0.3" d="M783.87 816.99L746.63 787.76L699.7 743.72L659.29 698.56L624.75 652.66L596.02 606.98L572.35 561.61L553.51 517.33L538.81 473.98L527.93 432.22L520.29 391.69L515.54 352.95L540.48 311.25L566.44 278.67L568.85 275.64L599.89 245.51L632.79 221.08L667 201.69L701.77 187.46L736.77 177.75L771.32 172.54L805.22 171.26L837.89 173.8L857.73 156.59L877.38 140.93L896.77 126.44L915.45 112.93L933.38 100.11L950.24 87.77L965.94 75.69L980.27 63.67L993.07 51.56L1004.24 39.2L1013.51 26.47L1020.89 13.29L1025.97 -0.449997L1028.9 -14.74L1029.04 -24.99" stroke="#E5E7EB" stroke-linecap="round" stroke-linejoin="round"/>
<path opacity="0.3" d="M595.35 816.99L575.09 774.6L551.15 705.97L536.7 641.25L530.41 580.62L531.51 524.92L538.81 473.98L551.52 428.41L568.65 387.78L589.45 352.56L613.12 322.16L617.45 286.43L624.19 252.61L632.79 221.08L642.95 191.32L654.14 163.59L666.21 137.42L678.65 112.96L691.43 89.81L704.05 68.07L716.52 47.41L728.41 27.86L739.7 9.19L750.01 -8.60999L758.88 -24.99" stroke="#E5E7EB" stroke-linecap="round" stroke-linejoin="round"/>
<path opacity="0.3" d="M878.07 816.99L841.64 794.11L835.92 789.66L787.65 752.15L782.85 747.58L741.1 707.77L736.21 702.08L701.42 661.61L668.8 614.93L665.06 608.27L642.47 568.08L622.25 522.13L607.34 477.1L597.35 433.84L613.68 400.31L632.89 371.59L654.27 347.09L658.86 310.57L666.47 276.23L676.47 244.47L688.44 214.81L701.77 187.46L716.23 161.95L731.23 138.39L746.68 116.34L762.06 95.83L777.35 76.5L792.09 58.33L806.28 41.02L819.54 24.53L831.81 8.65L842.82 -6.71L852.41 -21.68L854.21 -24.99" stroke="#E5E7EB" stroke-linecap="round" stroke-linejoin="round"/>
<path opacity="0.3" d="M-29.25 168.96L-9.41 131.01L-6.54 126.55L41.7 51.66L44.48 48.1L97.42 -19.51L108.48 -19.81L113.41 -24.99" stroke="#E5E7EB" stroke-linecap="round" stroke-linejoin="round"/>
<path opacity="0.3" d="M189.97 816.99L181.01 775.51L170.08 662.43L172.17 557.55L185.56 461.79L169.41 427.28L154.63 395.21L140.87 365.35L127.79 338.51L115.03 314.48L154.06 234.47L198.61 163.92L247.26 102.73L298.97 50L352.61 5.48L397.58 -24.99" stroke="#E5E7EB" stroke-linecap="round" stroke-linejoin="round"/>
<path opacity="0.3" d="M-16.94 251.63L-0.220003 213.01L45.31 130.15L96.08 55.25L151.37 -11.81L164.46 -24.99" stroke="#E5E7EB" stroke-linecap="round" stroke-linejoin="round"/>
<path opacity="0.3" d="M406.7 816.99L392.92 777.87L371.93 685.34L363.02 598.71L364.52 518.12L375.24 444.57L362.61 405.64L352.03 367.95L343.26 331.03L336.08 295.58L330.29 261.17L325.58 228.46L321.77 197.08L318.45 167.63L315.44 139.81L312.27 114.17L308.75 90.44L304.38 69.11L298.97 50L292.04 33.54L283.43 19.6L272.71 8.58001L259.78 0.450012L244.34 -4.41999L226.33 -5.95999L191.93 26.65L172.9 44.68L137.51 85.01L123.06 101.47L121.16 103.64L86.53 151.73L84.77 154.19L83.64 155.76L82.13 157.86" stroke="#E5E7EB" stroke-linecap="round" stroke-linejoin="round"/>
<path opacity="0.3" d="M1340.87 810.02L1299.62 813.12L1283.96 804.38L1271.12 795.87L1259.9 788.05L1251.42 780.62L1244.46 774L1240.16 767.86L1237.27 762.58L1235.8 762.36L1194.1 756.09L1174.61 753.15L1115.45 737.49L1061.95 716.23L1013.76 690.44L972.55 661.17L937.69 629.37L910.23 596.26L889.32 562.58L875.4 529.49L867.53 497.47L865.64 467.47L868.78 439.68L876.56 414.75L888.13 392.63L902.9 373.61L920.2 357.48L939.42 344.21L960.04 333.49L981.55 325.03L1003.6 318.49L1025.77 313.44L1047.89 309.51L1069.65 306.22L1090.93 303.22L1111.55 300.04L1131.4 296.36L1150.37 291.79L1168.3 286.02L1185.13 278.8L1200.6 269.82L1214.67 258.99L1226.97 246.03L1237.48 231.03L1245.72 213.71L1251.71 194.38L1254.82 172.78L1255.21 149.42L1252.1 124.07L1245.82 97.42L1235.49 69.33L1221.65 40.58L1203.34 11.13L1202.4 9.88L1181.31 -18.18L1175.06 -24.99" stroke="#E5E7EB" stroke-linecap="round" stroke-linejoin="round"/>
<path opacity="0.3" d="M751.49 -24.99L710.32 -21.22L660.32 -11.87L609.57 2.89L558.74 23.37L558.59 23.44L508.22 50.22L508.05 50.33L458.98 83.57L458.9 83.62L411.42 124.27L411.35 124.32L366.63 172.34L325.58 228.46L289.44 292.5L259.36 365.2L236.74 446.12L223.12 535.8L220.01 633.49L247.63 673.32L277.8 713.54L310.87 754.35L346.64 794.87L354.14 816.99" stroke="#E5E7EB" stroke-linecap="round" stroke-linejoin="round"/>
<path opacity="0.3" d="M1340.87 757.24L1301.19 760.33L1236.94 757.78L1175.17 748.55L1118.16 733L1065.67 712.24L1019.59 687.11L979.39 658.65L946.39 627.99L919.82 595.98L900.38 563.78L899.55 561.79L887.15 532.01L880.3 501.7L878.86 473.17L882.59 447.17L890.59 423.79L902.36 403.43L917.14 385.98L934.36 371.51L953.41 359.77L973.77 350.55L995.02 343.53L1016.72 338.31L1038.63 334.53L1060.42 331.7L1081.97 329.47L1103.06 327.34L1123.59 324.96L1143.45 321.88L1162.5 317.79L1180.68 312.34L1197.76 305.21L1213.7 296.24L1228.16 285.1L1241.11 271.81L1252.09 256.07L1261.07 238.1L1245.72 213.71L1228.96 189.44L1210.29 165.11L1189.93 141.15L1167.34 117.49L1142.81 94.52L1115.81 72.31L1086.67 51.22L1054.92 31.42L1020.89 13.29L984.27 -2.92L945.34 -16.84L915.43 -24.99" stroke="#E5E7EB" stroke-linecap="round" stroke-linejoin="round"/>
<path opacity="0.3" d="M273.12 816.99L262.97 778.99L247.63 673.32L244.99 574.68L253.56 484.15L236.74 446.12L221.79 409.76L208.4 374.78L196.3 341.98L185.17 311.1L174.65 282.89L164.42 257.11L154.06 234.47L143.3 214.75L131.7 198.6L119.06 185.85L105 177.1L89.42 172.25L74.02 171.89" stroke="#E5E7EB" stroke-linecap="round" stroke-linejoin="round"/>
<path opacity="0.3" d="M752.77 816.99L722.28 792.19L676.72 748.35L637.29 703.63L603.35 658.33L574.79 613.31L550.91 568.6L531.51 524.92L515.93 482.07L503.92 440.68L494.91 400.35L488.64 361.66L513.24 315.53L539.7 278.71L541.8 275.8L571.15 244.32L573.47 241.83L607.38 213.89L642.95 191.32L679.36 174.22L716.23 161.95L752.83 154.49L788.95 151.26L823.95 152.13L857.73 156.59L889.78 164.41L920.07 175.16L948.23 188.56L974.28 204.24L995.66 195.2L1016.38 186.8L1036.14 178.67L1054.84 170.55L1072.28 162.15L1088.33 153.22L1102.89 143.57L1115.71 132.98L1126.81 121.37L1135.79 108.54L1142.81 94.52L1147.29 79.16L1149.49 62.61L1148.73 44.73L1145.37 25.82L1138.59 5.79L1128.91 -14.95L1122.59 -24.99" stroke="#E5E7EB" stroke-linecap="round" stroke-linejoin="round"/>
<path opacity="0.3" d="M654.28 816.99L626.34 791.01L586.57 748.78L551.15 705.97L520.07 663.26L492.72 620.53L469.05 578.41L448.52 536.61L431.05 495.76L416.21 455.43L403.87 416.26L424.65 355.04L451.26 301L482.63 253.57L517.69 213.09L553.94 180.44L555.65 178.9L595.55 151.16L636.84 129.17L678.65 112.96L720.64 101.89L762.06 95.83L802.7 94.22L841.95 96.82L879.68 103.16L915.45 112.93L949.19 125.71L980.58 141.16L1009.63 158.94L1028.2 149.8L1045.58 140.6L1061.57 131.06L1076.03 120.99L1088.89 110.22L1099.85 98.57L1108.97 85.99L1115.81 72.31L1120.55 57.59L1122.58 41.7L1122.22 24.82L1118.71 6.84L1112.5 -11.92L1105.99 -24.99" stroke="#E5E7EB" stroke-linecap="round" stroke-linejoin="round"/>
<path opacity="0.3" d="M1203.52 816.99L1165.92 812.42L1164.72 812.13L1095.24 795.51L1092.38 794.49L1028.79 771.65L1027.31 770.92L1022 768.29L968.72 741.85L966.03 740.11L963.21 738.29L914.86 707.05L913.28 705.73L908.58 701.83L868.71 668.64L866.43 666.24L829.75 627.46L798.79 585.02L775.03 541.9L758.66 499.49L748.75 458.06L745 418.71L746.52 381.43L752.7 346.97L762.78 315.09L776.03 286.22L791.88 259.97L809.58 236.51L828.76 215.39L848.72 196.57L869.26 179.64L889.78 164.41L910.19 150.52L930.01 137.72L949.19 125.71L967.38 114.24L984.5 103.07" stroke="#E5E7EB" stroke-linecap="round" stroke-linejoin="round"/>
<path opacity="0.3" d="M9.94 378.1L21.26 342.73L60.31 254.61L105 177.1L153.97 109.25L205.88 50.67L259.78 0.450005L292.76 -24.99" stroke="#E5E7EB" stroke-linecap="round" stroke-linejoin="round"/>
<path opacity="0.3" d="M55.61 540.83L59.65 505.3L41.61 483.26L67.76 383.22L52.6 365.63L37.2 351.9L21.26 342.73L4.60002 338.01L0.710022 338.09" stroke="#E5E7EB" stroke-linecap="round" stroke-linejoin="round"/>
<path opacity="0.3" d="M159.18 816.99L145.1 785.65L124.32 735.46L120.69 726.68L102.38 682.48L94.54 663.54L80.9 630.61L72.7 605.01L55.19 550.29L39 493.23L33.42 475.41L29.88 463.32L27.38 453.53L17.89 415.05L15.21 405.43L9.17 380.51L1.96 346.07L1.97 343.83L0.709991 338.09L-2.54 325.61L-3.91 321.01L-4.74001 317L-5.8 311.9L-6.35 308.5L-6.39 308.31L-6.75 305.39L-8.21 299.38L-9.86 292.33L-11.38 283.68L-12.5 278.16L-13.06 273.95L-14.94 263.31L-17.02 251.81L-18.93 240.64L-19.18 239.2L-21.5 225.66L-23.27 215.28L-23.63 212.88L-23.78 211.33L-25.53 197.83L-27.34 183.75L-29.25 168.96L-31.25 153.5L-32.45 144.21L-33.02 137.72L-33.07 137.07L-34.7 123.33L-36.87 110L-37.7 103.61L-38.62 81.31L-38.65 77.92L-40.44 52.39L-41.17 21.89L-41.44 4.00001L-41.1 -4.79999L-40.91 -18.19L-40.95 -20.68L-40.91 -24.76" stroke="#E5E7EB" stroke-linecap="round" stroke-linejoin="round"/>
<path opacity="0.3" d="M1340.87 669.89L1311.47 687.47L1279.96 701.78L1249.62 711.72L1220.95 717.98L1194.39 721.14L1171.14 721.83" stroke="#E5E7EB" stroke-linecap="round" stroke-linejoin="round"/>
<path opacity="0.3" d="M158.34 816.99L145.1 785.65L130.55 748.7L123.76 730.73L120.92 723.65L111.22 699.6L106.77 687.57L94.87 655.39L89.71 642.29L73.23 598.38L55.19 550.29L44.88 519.43L37.74 498.05L28.07 469.09L25.3 460.79L9.10001 412.29L-2.18 358.69L-5.63 342.28L-11.85 307.58L-17.37 276.81L-21.95 245.65L-26.39 215.5L-26.52 214.7L-30.51 189.74L-35.1 160.98L-37.73 144.53L-39.8 131.62L-44.84 100.06L-46.48 83.87L-55.7 -7.33L-56.37 -24.99" stroke="#E5E7EB" stroke-linecap="round" stroke-linejoin="round"/>
<path opacity="0.3" d="M763.79 816.99L746.63 787.76L725.78 743.2L711.06 701.15L701.42 661.61L696.67 625.17L695.82 591.59L698.7 561.42L704.42 534.24L712.86 510.55L723.22 489.82L735.41 472.52L748.75 458.06L763.19 446.84L778.14 438.25L793.58 432.64L809.04 429.41L824.53 428.82L839.67 430.32L854.52 434.11L868.78 439.68L882.59 447.17L895.7 456.15L908.33 466.7L920.26 478.46L931.79 491.47L942.73 505.45L953.46 520.41L963.78 536.14L974.15 552.61L984.37 569.67L994.94 587.28L1003.37 601.43L1005.68 605.32L1009.52 617.55L1018.21 629.42L1022.27 634.96L1029.3 645.72L1034.29 651.51" stroke="#E5E7EB" stroke-linecap="round" stroke-linejoin="round"/>
<path opacity="0.3" d="M1340.87 746.09L1307.15 748.95L1246.07 747.55L1188.72 739.49L1134.97 725.94L1127.97 727.28L1121.96 729.68L1118.16 733L1115.45 737.49L1115.08 743.01L1115.92 749.74L1119.27 757.54L1124.01 766.52L1131.41 776.52L1198.55 789.88L1199.4 790.05L1271.12 795.87L1340.87 793.84" stroke="#E5E7EB" stroke-linecap="round" stroke-linejoin="round"/>
<path opacity="0.3" d="M1340.87 766.87L1307.19 769.83L1240.16 767.86L1237.61 767.5L1191.94 761.12L1175.33 758.8" stroke="#E5E7EB" stroke-linecap="round" stroke-linejoin="round"/>
<path opacity="0.3" d="M1186.64 725.81L1170.95 722.75L1170.55 723.61L1157.99 720.47L1151.35 718.81L1148.51 718.1L1147.76 717.04L1142.83 714.57L1141.89 714.27L1141.8 714.24L1123.39 708.14L1122.08 707.54L1110.15 702.12" stroke="#E5E7EB" stroke-linecap="round" stroke-linejoin="round"/>
<path opacity="0.3" d="M1139.2 816.99L1109.01 810.77L1107.48 810.26L1040.41 788.29L1037.39 786.92L976.9 759.41L975.15 758.35L969.76 755.1L920.39 725.34L917.63 723.2L914.5 720.8L870.61 686.98L868.87 685.27L864.25 680.73L828.77 645.84L794.27 602.65L767.64 558.92L748.03 515.11L735.41 472.52L728.85 431.3L727.94 392.44L731.8 355.81L739.79 322.06L762.78 315.09L785.54 311.54L807.85 310.86L829.38 313.1L850 317.77L869.47 324.86L887.74 333.93L904.64 344.92L920.2 357.48L934.36 371.51L947.14 386.73L958.62 403.04L968.83 420.21L977.93 438.15L985.96 456.72L993.16 475.83M993.16 475.83L999.57 495.37L1005.49 515.29L1010.94 535.52L1016.3 556.02L1021.56 576.75L1027.12 597.68L1033.01 618.77L1039.65 640L1047.05 661.32L1046.08 661.73L1043.74 660.56L1040.74 657.57L1039.88 655.94L1039.58 655.59L1039.24 655.17L1038.44 654.53L1037.85 654.16L1037.14 653.36L1036.32 652.36L1033.89 650.15L1030.68 647.44L1026.17 642.66L1014.17 631.94L1000.13 617.82L986.42 604.27L973.41 591.47L960.49 579.45L953.65 557.82L951.33 537.97L953.46 520.41L959.13 505.31L968.07 492.87L979.52 483.06L993.16 475.83ZM993.16 475.83L1008.4 470.96L1024.98 468.2L1042.46 467.23L1060.73 467.62L1079.51 469L1098.76 470.88L1118.36 472.85L1138.29 474.39L1158.46 475.1L1178.88 474.47L1199.42 472.12L1220 467.61L1240.38 460.56L1260.37 450.69L1279.59 437.61L1297.73 421.29L1314.28 401.38L1328.82 378.12L1340.74 351.23L1330.4 330.13L1338.19 301.24L1326.38 280.93L1329.81 250.6L1329.66 218.12L1325.17 183.39L1316.49 147.36L1302.87 110.04L1285.02 73.05L1284.75 72.49L1261.83 35.5L1261.38 34.79L1235.29 0.370005L1234.01 -1.32L1233.5 -2L1212.2 -24.99" stroke="#E5E7EB" stroke-linecap="round" stroke-linejoin="round"/>
<path opacity="0.3" d="M645.37 -24.99L616.2 -17.46L564.39 1.51L513.42 26.21L512.79 26.52L512.75 26.54L462.46 57.87L461.87 58.24L412.76 96.69L412.54 96.86L365.47 143.13L321.77 197.08L282.39 259.48L248.63 330.14L221.79 409.76L203.35 497.88L194.98 594.96L198.32 700.16L229.3 739.33L262.97 778.99L297.63 816.99" stroke="#E5E7EB" stroke-linecap="round" stroke-linejoin="round"/>
<path opacity="0.3" d="M640.36 816.99L626.34 791.01L600.87 728.47L583.9 668.93L574.79 613.31L572.35 561.61L575.93 514.51L584.47 471.75L597.35 433.84L591.54 392.11L589.45 352.56L590.46 314.78L594.08 279.26L599.89 245.51L607.38 213.89L616.31 183.91L626.16 155.82L636.84 129.17L647.85 104.16L659.17 80.39L670.33 57.99L681.34 36.64L691.75 16.44L701.54 -2.86L710.32 -21.22L711.97 -24.99" stroke="#E5E7EB" stroke-linecap="round" stroke-linejoin="round"/>
<path opacity="0.3" d="M-19.18 239.2L-7.70998 212.59L37.94 128.96L88.8 53.54L144.29 -14.24L154.91 -24.99" stroke="#E5E7EB" stroke-linecap="round" stroke-linejoin="round"/>
<path opacity="0.3" d="M1340.87 743.13L1312.5 745.99L1253.11 745.05L1196.26 738.06L1175.23 732.93L1144.08 725.34L1131.4 720.76L1129.68 720.14L1096.25 708.07L1088.68 704.25L1054.47 686.98L1043.84 679.99L1018.16 663.13L1013.49 659.08L988.5 637.47L984.56 633.07L964.69 610.88L963.64 609.28L947.36 584.34L935.61 558.46L929.6 534.07L928.38 511.55L931.79 491.47L938.93 473.95L949.46 459.27L962.59 447.35L977.93 438.15L994.87 431.47L1013.08 427.02L1032.12 424.49L1051.76 423.45L1071.75 423.53L1091.95 424.22L1112.23 425.13L1132.52 425.75L1152.75 425.68L1172.84 424.45L1192.7 421.68L1212.25 416.99L1231.27 410.01L1249.6 400.52L1266.92 388.16L1282.99 372.91L1297.32 354.45L1309.68 333.01L1299 309.7L1287.53 286.19L1274.84 262.18L1261.07 238.1L1267.46 217.62L1251.71 194.38L1234.29 170.89L1215.46 147.6L1194.61 124.33L1172.09 101.54L1147.29 79.16L1120.55 57.59L1091.32 36.91L1059.94 17.5L1025.97 -0.449997L989.76 -16.59L966.51 -24.99" stroke="#E5E7EB" stroke-linecap="round" stroke-linejoin="round"/>
<path opacity="0.3" d="M1340.87 772.52L1313.54 775.1L1244.46 774L1243.46 773.87L1186.46 766.27L1178.58 765.22L1176.06 764.6L1173.31 763.92L1115.92 749.74L1114.65 749.26L1059.45 728.44L1058.79 728.19L1006.89 701.59L962.04 671.03L923.65 637.46L892.89 602.19L868.94 565.94L852.32 530L842.07 494.86L838.17 461.57L839.67 430.32L846.14 401.88L856.74 376.17L870.84 353.6L887.74 333.93L906.77 317.22L927.42 303.14L949.08 291.5L971.41 281.92L993.9 274.05L1016.37 267.5" stroke="#E5E7EB" stroke-linecap="round" stroke-linejoin="round"/>
<path opacity="0.3" d="M1340.87 597.74L1319.76 613.88L1291.15 630.68L1262.79 643.04L1235.22 651.51L1208.92 656.56L1184.2 658.8L1161.24 658.78L1140.19 657.07L1121.03 654.23L1103.81 650.74L1088.41 647.1L1074.9 643.73L1063.16 641.03L1053.35 639.33L1045.41 638.91L1039.65 640L1036.08 642.75L1035.16 647.24L1039.24 655.17" stroke="#E5E7EB" stroke-linecap="round" stroke-linejoin="round"/>
<path opacity="0.3" d="M721.04 816.99L701.54 800.86L656.81 757.54L617.81 713.49L583.9 668.93L554.99 624.65L530.41 580.62L509.99 537.52L493.13 495.1L479.62 453.97L468.94 413.74L460.89 374.99L484.7 324.12L513.05 279.93L542.97 244.23L545 241.8L577.56 211.93L579.64 210.02L616.31 183.91L654.14 163.59L692.7 148.43L731.23 138.39L769.46 132.88L806.72 131.76L842.88 134.52L877.38 140.93L910.19 150.52L940.88 163.01L969.46 178.01L995.66 195.2L1019.54 214.27L1040.94 234.86L1061.76 228.86L1081.62 222.79L1100.41 216.37L1118 209.28L1134.21 201.27L1148.99 192.14L1162.05 181.65L1173.42 169.76L1182.67 156.22L1189.93 141.15L1194.61 124.33L1196.97 106.04L1196.25 86.08L1192.83 64.88L1185.85 42.28L1175.83 18.86L1161.82 -5.47L1148.08 -24.99" stroke="#E5E7EB" stroke-linecap="round" stroke-linejoin="round"/>
<path opacity="0.3" d="M1340.87 733.08L1338.93 733.29L1337.83 733.41L1336.81 733.61L1336.58 733.65L1325.86 735.07L1325.55 735.11L1306.64 735.81L1300.86 735.86L1297.94 735.77L1295.59 735.83L1291.22 735.93L1277.63 736.02L1263.6 735.89H1263.49L1259.91 735.6L1242.27 734.17L1241.64 734.12L1239.55 734.29L1230.88 733.66L1223.45 732.75L1220.14 732.24L1203.84 729.97L1194.13 729.51L1172.49 724.1L1170.95 722.75L1170.18 721.87L1155.93 717.92L1147.5 715.71L1146.05 715.25L1127.41 708.2L1122.33 706.22L1112.85 702.33L1109.91 700.89L1109.48 700.8L1101.59 697.69L1100.8 697.37L1100.38 697.17L1094.63 693.73L1094.47 693.35L1088.15 690.26L1085.34 688.98L1082.12 687.31L1081.83 687.15L1081.77 686.94L1080.45 685.93L1070.93 680.49L1067.35 678.58L1066.96 678.32L1061.24 674.41L1055.41 669.86L1054.11 668.3L1053.22 667.61L1047.96 663.58L1045.95 662.32L1045.87 661.55L1042.87 658.56L1041.2 657.59L1040.32 657.26L1036.37 653.15L1034.33 651.29L1029.79 648.23L1014.37 636.57L1000.04 624.46L986.02 613.02L972.82 602.46L959.75 592.82L948.09 568.45L941.52 545.39L940.04 524.3L942.73 505.45L949.35 489.24L959.04 475.68L971.48 464.89L985.96 456.72L1002.15 451L1019.53 447.47L1037.86 445.75L1056.81 445.5L1076.23 446.25L1095.94 447.61L1115.9 449.06L1135.98 450.2L1156.19 450.52L1176.41 449.63L1196.62 447.08L1216.62 442.49L1236.31 435.52L1255.41 425.78L1273.68 413.16L1290.71 397.27L1306.16 378.22L1319.5 355.71L1309.68 333.01L1319.43 308.33L1307.91 286.29L1313.8 259.92L1300.65 238.72L1302.52 211.18L1301.09 181.73L1295.58 150.22L1286.25 117.55L1272.28 83.64L1272.03 83.18L1254.36 49.83L1254.17 49.48L1231.38 15.48L1231.13 15.1L1231.03 14.99L1204.36 -17.94L1203.9 -18.52L1197.53 -24.99" stroke="#E5E7EB" stroke-linecap="round" stroke-linejoin="round"/>
<path opacity="0.3" d="M-39.52 48.21L-26.89 28.68L-7.46004 16.09L-6.06004 14.34L25.5 -24.99" stroke="#E5E7EB" stroke-linecap="round" stroke-linejoin="round"/>
<path opacity="0.3" d="M1040.94 234.86L1019.4 241.19L997.24 248.16L974.82 256.2L952.26 265.65L930.08 276.91L909.17 264.14L886.59 253.39L862.29 245.05L836.61 239.27L809.58 236.51L781.65 236.85L765.33 262.62L738.42 268.63L711.38 278.58L684.74 292.36L658.86 310.57L634.33 333.01L632.89 371.59L635.26 412.14L642.15 454.95L654.08 499.26L671.87 545.15L695.82 591.59L723.47 633.34L726.79 638.35L761.48 680.22L764.74 684.16L806.18 724.4L810.37 728.46L859.4 766.91L863.12 769.82L918.69 804.49L923.4 807.43L943.04 816.99" stroke="#E5E7EB" stroke-linecap="round" stroke-linejoin="round"/>
<path opacity="0.3" d="M-31.25 153.5L-21.08 133.71L-16.23 126.1L29.84 53.74L34.98 47.08L85.56 -18.59L97.42 -19.51L102.56 -24.99" stroke="#E5E7EB" stroke-linecap="round" stroke-linejoin="round"/>
<path opacity="0.3" d="M58.42 -24.99L43.81 -8.22L-7.70004 62.35L-10.97 66.83L-26.54 74.57L-37.96 80.94" stroke="#E5E7EB" stroke-linecap="round" stroke-linejoin="round"/>
<path opacity="0.3" d="M1040.29 207.09L1019.54 214.27L997.98 221.88L975.93 230.32L953.52 239.92L930.22 225.51L904.83 213.29L877.67 203.51L848.72 196.57L818.41 192.69L799.44 213.69L769.27 215.37L752.92 240.83L738.42 268.63L726.19 299.22L716.96 332.31L711.34 368.27L710.03 406.55L713.81 447.36L723.22 489.82L739.15 533.91L761.81 578.44L792.1 623.04L829.69 666.29L869.03 701.85L872.47 704.95L875.32 707.53L925.98 743.77L928.02 745.23L988.18 778.52L1052.24 805.24L1054.16 806.04L1091.9 816.99" stroke="#E5E7EB" stroke-linecap="round" stroke-linejoin="round"/>
<path opacity="0.3" d="M1009.63 158.94L989.96 168.24L969.46 178.01L948.23 188.56L926.65 200.2L904.83 213.29L883.31 228.1L856.73 220.35L828.76 215.39L799.44 213.69L781.65 236.85L752.92 240.83L723.93 248.44L711.38 278.58L701.43 311.1L694.64 346.44L691.68 384.09L693.29 424.37L700.06 466.5L712.86 510.55L732.01 555.44L758.42 600.95L792 645.71L830.59 686.1L833.53 689.18L879.99 727.9L882.32 729.85L935.46 764.66L938.87 766.89L999.49 797.68L1001.81 798.86L1050.28 816.99" stroke="#E5E7EB" stroke-linecap="round" stroke-linejoin="round"/>
<path opacity="0.3" d="M1081.74 686.65L1077.81 665.51L1074.9 643.73L1072.73 621.91L1071.19 600.03L1069.91 578.11L1068.79 556.11L1067.47 534.07L1065.87 511.94L1063.66 489.8L1060.73 467.62L1056.81 445.5L1051.76 423.45L1045.38 401.61L1037.51 380.03L1028.01 358.9L1016.72 338.31L1003.6 318.49L988.48 299.61L971.41 281.92L952.26 265.65L931.2 251.07L908.12 238.47L883.31 228.1" stroke="#E5E7EB" stroke-linecap="round" stroke-linejoin="round"/>
<path opacity="0.3" d="M999.04 130.93L980.58 141.16L961.17 151.77L940.88 163.01L920.07 175.16L898.84 188.58L869.26 179.64L837.89 173.8L818.41 192.69L786.78 192.33L769.27 215.37L738.39 220.95L723.93 248.44L694.92 260.28L666.47 276.23L638.99 296.93L613.12 322.16L611.68 360.29L613.68 400.31L619.77 442.57L630.45 486.39L646.5 531.91L668.3 578.21L696.67 625.17L728.11 666.85L731.71 671.62L769.63 712.27L774.15 717.11L819.41 756.58L823.65 760.28L875.52 796.75L880.7 800.39L910.36 816.99" stroke="#E5E7EB" stroke-linecap="round" stroke-linejoin="round"/>
<path opacity="0.3" d="M1170.13 721.57L1165.92 701.19L1163.03 680.15L1161.24 658.78L1160.34 637.07L1160.03 615.02L1160.14 592.61L1160.37 569.85L1160.56 546.71L1160.44 523.21L1159.82 499.32L1158.46 475.1L1156.19 450.52L1152.75 425.68L1147.97 400.59L1141.62 375.38L1133.57 350.11L1123.59 324.96L1111.55 300.04L1097.3 275.59L1080.73 251.76L1061.76 228.86L1040.29 207.09" stroke="#E5E7EB" stroke-linecap="round" stroke-linejoin="round"/>
<path opacity="0.3" d="M1340.87 740.61L1320.2 742.92L1261.3 743.19L1205.99 737.02L1185.88 732.6L1154.13 725.62L1151.85 724.83L1138.23 720.11L1107.58 709.5L1105.85 708.67L1096.12 704.07L1065.92 689.79L1059.93 685.99L1055.37 683.09L1030.53 667.32L1025.64 663.35L1000.74 643.07L988.5 637.47L976.62 633L965.9 629.9L955.53 628.14L946.39 627.99L937.69 629.37L930.37 632.59L923.65 637.46L918.54 644.34L914.31 652.96L911.99 663.67L910.87 676.16L953.96 707.79L958.88 711.4L1007.14 738.86L1012.04 741.65L1013.32 742.37L1069.64 766.08L1074.5 768.13L1139.4 787.3L1140.42 787.6L1208.44 799.4L1211.05 799.86L1224.41 810.46L1234.04 816.99" stroke="#E5E7EB" stroke-linecap="round" stroke-linejoin="round"/>
<path opacity="0.3" d="M-36.97 92.33L-26.54 74.57L-19.85 65.14L27.88 -2.11L43.81 -8.22L58.81 -13.15L69.39 -24.99" stroke="#E5E7EB" stroke-linecap="round" stroke-linejoin="round"/>
<path opacity="0.3" d="M891.99 816.99L880.7 800.39L863.12 769.82L849.87 741.07L839.9 714.02L833.53 689.18L829.69 666.29L828.77 645.84L829.75 627.46L833.02 611.62L837.63 597.88L844.02 586.65L851.27 577.49L859.86 570.74L868.94 565.94L879.02 563.37L889.32 562.58L900.38 563.78L911.5 566.58L923.25 571.1L935 577L947.36 584.34L959.75 592.82L976.53 616.71L977.43 617.98L999.31 641.53L1000.74 643.07L1014.15 649.75L1027.99 657.33L1043.06 665.69L1055.63 672.93L1058.69 674.69L1071.15 681.52L1076.27 684.32L1081.8 687.14" stroke="#E5E7EB" stroke-linecap="round" stroke-linejoin="round"/>
<path opacity="0.3" d="M1340.87 267.08L1329.81 250.6L1316.61 231.23L1302.52 211.18L1287.84 190.97L1271.95 170.21L1255.21 149.42L1236.93 128.25L1219.96 109.87L1217.52 107.23L1196.25 86.08L1175.93 67.47L1173.57 65.29L1148.73 44.73L1124.51 26.55L1122.22 24.82L1096.04 7.39001L1093.31 5.57L1062.47 -12.63L1038.24 -24.99" stroke="#E5E7EB" stroke-linecap="round" stroke-linejoin="round"/>
<path opacity="0.3" d="M1340.87 778.89L1321.4 781.04L1251.42 780.62L1248.89 780.32L1186.68 773.08L1183.23 772.68L1119.27 757.54L1116.8 756.66L1114.21 755.73L1059.51 736.18L1058.27 735.56L1006.06 709.5L958.56 678.46L918.54 644.34L885.35 607.97L859.86 570.74L841.19 533.26L829.6 496.78L824.12 461.64L824.53 428.82L829.9 398.37L839.69 370.93L853.11 346.33L869.47 324.86L888.16 306.2L908.51 290.34L930.08 276.91" stroke="#E5E7EB" stroke-linecap="round" stroke-linejoin="round"/>
<path opacity="0.3" d="M1297.91 735.69L1288.45 719.79L1279.96 701.78L1273.01 682.89L1267.35 663.32L1262.79 643.04L1259.1 622.17L1256.08 600.67L1253.5 578.65L1251.18 556.04L1248.92 532.95L1246.49 509.3L1243.72 485.19L1240.38 460.56L1236.31 435.52L1231.27 410.01L1225.12 384.19L1217.58 358.03L1208.55 331.7L1197.76 305.21L1185.13 278.8L1170.38 252.52L1153.5 226.62L1134.21 201.27L1112.56 176.73L1088.33 153.22L1061.57 131.06L1032.21 110.53L1000.33 91.95L965.94 75.69L929.15 62.08L890.16 51.51L849.08 44.37L806.28 41.02L761.92 41.93L716.52 47.41L670.33 57.99L624.04 73.89L578.01 95.75L577.1 96.32L533.08 123.66L531.93 124.58L489.79 158.32L488.69 159.43L449.13 199.65L447.91 201.25L411.88 248.39L379.16 304.26L352.03 367.95L331.72 438.92L319.63 517.68L317.03 603.39L325.61 696.2L346.64 794.87L367.89 816.99" stroke="#E5E7EB" stroke-linecap="round" stroke-linejoin="round"/>
<path opacity="0.3" d="M1340.87 232.64L1329.66 218.12L1315.57 200.03L1301.09 181.73L1285.61 162.76L1269.51 143.68L1252.1 124.07L1233.82 104.49L1213.89 84.58L1192.83 64.88L1169.81 45.14L1148.01 27.91L1145.37 25.82L1121.88 9.1L1118.71 6.84L1090.36 -11.38L1066.33 -24.99" stroke="#E5E7EB" stroke-linecap="round" stroke-linejoin="round"/>
<path opacity="0.3" d="M1340.87 622.01L1326.56 632.95L1296.81 650.38L1267.35 663.32L1238.84 672.17L1211.73 677.55L1186.39 680L1163.03 680.15L1141.75 678.58L1122.64 675.83L1105.61 672.43L1090.72 668.84L1077.81 665.51L1067.01 662.79L1058.16 661.03L1051.54 660.47L1046.84 661.58L1045.88 661.94L1043.99 661.11L1043.74 660.56L1041.89 658.78L1040.73 658.28L1039.7 657.76L1038.95 656.93L1038.09 655.31L1037.6 653.75L1036.45 652.18L1034.98 648.12L1032.19 645.86L1029.52 644.33L1024.35 639.48L1017.07 631.42L1011.98 625.4L1003.6 615.53L997.19 600.5L994.08 596.08L985.51 583.93L984.37 569.67L986.94 557.63L992.44 547.9L1000.66 540.56L1010.94 535.52L1023.13 532.62L1036.7 531.64L1051.58 532.23L1067.47 534.07L1084.37 536.71L1102.1 539.78L1120.74 542.77L1140.21 545.25L1160.56 546.71L1181.7 546.69L1203.59 544.69L1226.07 540.24L1248.92 532.95L1271.82 522.34L1294.37 508.17L1316.07 490.05L1336.38 467.99L1340.87 461.5" stroke="#E5E7EB" stroke-linecap="round" stroke-linejoin="round"/>
<path opacity="0.3" d="M1070.8 679.91L1067.01 662.79L1063.16 641.03L1060.2 619.26L1057.73 597.5L1055.68 575.73L1053.65 553.98L1051.58 532.23L1049.12 510.51L1046.18 488.82L1042.46 467.23L1037.86 445.75L1032.12 424.49L1025.13 403.5L1016.69 382.93L1006.69 362.87L995.02 343.53L981.55 325.03L966.27 307.62L949.08 291.5L930.08 276.91" stroke="#E5E7EB" stroke-linecap="round" stroke-linejoin="round"/>
<path opacity="0.3" d="M1042.87 658.56L1036.08 642.75L1028.08 621.9L1020.66 601.2L1013.83 580.73L1007.15 560.49L1000.66 540.56L993.93 520.97L987.01 501.79L979.52 483.06L971.48 464.89L962.59 447.35L952.86 430.57L942.06 414.64L930.2 399.75L917.14 385.98L902.9 373.61L887.46 362.7L870.84 353.6L853.11 346.33L834.36 341.33L814.76 338.56L794.45 338.54" stroke="#E5E7EB" stroke-linecap="round" stroke-linejoin="round"/>
<path opacity="0.3" d="M115.16 816.99L107.1 802.1L70.91 697.07L41.49 600.81L17.59 512.2L-1.36997 430.43L-6.84997 413.47L-42.83 302.14L-46.46 288.7L-75.1 182.49L-77.69 170.32L-98.9 70.55L-113.17 -24.99" stroke="#E5E7EB" stroke-linecap="round" stroke-linejoin="round"/>
<path opacity="0.3" d="M-39.96 37.99L-26.89 28.68L-21.67 21.91L14.49 -24.99" stroke="#E5E7EB" stroke-linecap="round" stroke-linejoin="round"/>
<path opacity="0.3" d="M578.36 816.99L566.68 806.01L527.83 765.13L492.8 724.01L461.04 682.46L432.65 641.13L407.13 599.69L384.56 558.82L364.52 518.12L347.02 478.3L362.61 405.64L385.55 340.6L414.58 282.63L448.51 232.19L485.03 190.19L486.39 188.62L525.91 153.24L527.14 152.13L568.79 122.92L570.08 122.03L614.24 98.33L659.17 80.39L704.05 68.07L748.58 60.8L792.09 58.33L834.39 60.14L874.97 65.94L913.7 75.27L950.24 87.77L984.5 103.07L1000.33 91.95L1014.72 80.72L1027.55 69.18L1038.6 57.19L1047.85 44.65L1054.92 31.42L1059.94 17.5L1062.37 2.79L1062.47 -12.63L1060.25 -24.99" stroke="#E5E7EB" stroke-linecap="round" stroke-linejoin="round"/>
<path opacity="0.3" d="M112.78 816.99L107.1 802.1L96.59 781.11L31.42 650.99L5.10007 552.43L-15.58 462.03L-31.25 378.91L-35.92 364.1L-70.56 254.52L-73.72 242.38L-100.75 138.25L-122.56 29.26L-129.85 -24.99" stroke="#E5E7EB" stroke-linecap="round" stroke-linejoin="round"/>
<path opacity="0.3" d="M1147.45 715.41L1144.46 699.81L1141.75 678.58L1140.19 657.07L1139.44 635.3L1139.34 613.23L1139.56 590.89L1139.95 568.22L1140.21 545.25L1140.19 521.94L1139.6 498.33L1138.29 474.39L1135.98 450.2L1132.52 425.75L1127.68 401.16L1121.28 376.46L1113.13 351.83L1103.06 327.34L1090.93 303.22L1076.58 279.59L1059.97 256.75L1040.94 234.86" stroke="#E5E7EB" stroke-linecap="round" stroke-linejoin="round"/>
<path opacity="0.3" d="M1340.87 110.77L1327.5 102.35L1313.65 93.13L1299.21 83L1284.75 72.49L1269.54 61.14L1254.17 49.48L1237.84 37.06L1221.21 24.41L1203.34 11.13L1184.97 -2.28999L1165.1 -16.17L1152.03 -24.99" stroke="#E5E7EB" stroke-linecap="round" stroke-linejoin="round"/>
<path opacity="0.3" d="M527.06 816.99L520.4 803.18L492.8 724.01L475.98 648.69L469.05 578.41L470.58 513.23L479.62 453.97L494.91 400.35L515.54 352.95L513.24 315.53L513.05 279.93L514.65 245.64L517.69 213.09L521.99 181.79L527.14 152.13L533.08 123.66L539.37 96.72L545.98 70.94L552.45 46.58L558.74 23.37L564.39 1.51L569.33 -19.21L586.69 -24.99" stroke="#E5E7EB" stroke-linecap="round" stroke-linejoin="round"/>
<path opacity="0.3" d="M1226.09 732.39L1220.95 717.98L1215.67 698.02L1211.73 677.55L1208.92 656.56L1207 635.11L1205.72 613.19L1204.88 590.82L1204.24 567.98L1203.59 544.69L1202.72 520.94L1201.4 496.75L1199.42 472.12L1196.62 447.08L1192.7 421.68L1187.56 395.96L1180.92 370.01L1172.64 343.91L1162.5 317.79L1150.37 291.79L1136.05 266.08L1119.44 240.86L1100.41 216.37L1078.9 192.83L1054.84 170.55L1028.2 149.8L999.04 130.93" stroke="#E5E7EB" stroke-linecap="round" stroke-linejoin="round"/>
<path opacity="0.3" d="M-21.5 225.66L-15.85 212.44L29.86 128.24L80.88 52.03L136.45 -16.25L145.01 -24.99" stroke="#E5E7EB" stroke-linecap="round" stroke-linejoin="round"/>
<path opacity="0.3" d="M1340.87 663.53L1334.4 651.1L1326.56 632.95L1319.76 613.88L1313.75 594.1L1308.4 573.54L1303.51 552.39L1298.89 530.54L1294.37 508.17L1289.77 485.15L1284.91 461.69L1279.59 437.61L1273.68 413.16L1266.92 388.16L1259.22 362.87L1250.27 337.14L1240.04 311.25L1228.16 285.1L1214.67 258.99L1199.18 232.88L1181.77 207.09L1162.05 181.65L1140.14 156.91L1115.71 132.98L1088.89 110.22L1059.46 88.84L1027.55 69.18L993.07 51.56L956.16 36.33L916.86 23.84L875.34 14.48L831.81 8.65001L786.47 6.76001L739.7 9.19001L691.75 16.44L643.19 28.82L594.34 46.91L593.97 47.1L545.98 70.94L545.29 71.38L498.56 101.56L497.88 102.12L453.03 138.86L452.11 139.82L410.07 183.56L370.77 235.56L336.08 295.58L307.26 363.29L285.57 439.31L272.39 523.01L293.54 563.04L317.03 603.39L343.2 644.42L371.93 685.34L403.61 726.46L438.04 767.06L475.67 807.43L485.48 816.99" stroke="#E5E7EB" stroke-linecap="round" stroke-linejoin="round"/>
<path opacity="0.3" d="M1340.87 170.99L1330.78 161.32L1316.49 147.36L1301.49 132.59L1286.25 117.55L1270.04 101.79L1253.4 85.85L1235.49 69.33L1216.94 52.75L1196.85 35.76L1175.83 18.86L1152.96 1.81L1128.91 -14.95L1113.06 -24.99" stroke="#E5E7EB" stroke-linecap="round" stroke-linejoin="round"/>
<path opacity="0.3" d="M1340.87 731.21L1331.94 720.8L1320.86 704.7L1311.47 687.47L1303.51 669.37L1296.81 650.38L1291.15 630.68L1286.37 610.22L1282.23 589.18L1278.56 567.45L1275.16 545.21L1271.82 522.34L1268.38 498.99L1264.62 475.05L1260.37 450.69L1255.41 425.78L1249.6 400.52L1242.68 374.81L1234.56 348.85L1224.91 322.58L1213.7 296.24L1200.6 269.82L1185.6 243.58L1168.38 217.59L1148.99 192.14L1127.14 167.36L1102.89 143.57L1076.03 120.99L1046.68 99.94L1014.72 80.72L980.27 63.67L943.37 49.16L904.15 37.54L862.83 29.19L819.54 24.53L774.67 23.93L728.41 27.86L681.34 36.64L633.7 50.83L586.25 70.64L585.46 71.08L539.37 96.72L538.59 97.29L493.99 129.17L492.95 130.11L450.67 168.68L449.7 169.81L410.49 215.19L374.29 269.4L343.26 331.03L318.56 400.73L301.49 477.92L293.54 563.04L296.08 655.17L325.61 696.2L357.77 737.01L392.92 777.87L429.83 816.99" stroke="#E5E7EB" stroke-linecap="round" stroke-linejoin="round"/>
<path opacity="0.3" d="M1061.65 673.75L1058.16 661.03L1053.35 639.33L1049.28 617.67L1045.87 596.05L1042.72 574.51L1039.79 553.02L1036.7 531.64L1033.37 510.34L1029.48 489.19L1024.98 468.2L1019.53 447.47L1013.08 427.02L1005.39 406.99L996.37 387.47L985.86 368.61L973.77 350.55L960.04 333.49L944.57 317.62L927.42 303.14L908.51 290.34L888.01 279.39L865.88 270.67L842.4 264.28L817.61 260.7L791.88 259.97L765.33 262.62L751.21 290.88L739.79 322.06L716.96 332.31L694.64 346.44L673.26 364.19L653.31 386.2L635.26 412.14L619.77 442.57L607.34 477.1L598.8 516.22L594.69 559.4L596.02 606.98L603.35 658.33L617.81 713.49L639.99 771.67L663.1 816.99" stroke="#E5E7EB" stroke-linecap="round" stroke-linejoin="round"/>
<path opacity="0.3" d="M1340.87 733.28L1340.44 733.35L1328.88 735L1325.87 735.35L1322.27 735.77L1311.87 736.18L1301.43 735.58L1298.03 735.91L1290.68 736.18L1283.8 736.12L1277.63 736.02L1270.48 736.45L1264.35 736.62L1252.36 736.49L1239.94 734.51L1234.26 733.95L1232.26 733.53L1227.18 732.56L1226.17 732.63L1221.37 732.34L1217.52 731.74L1196.53 727.92L1186.88 726.18L1179.27 724.85L1166.11 721.99L1164.49 721.6L1147.75 716.94L1146.21 716.13L1138.57 712.92L1131.39 710.66L1127.64 709.42L1123.39 708.14L1109.16 702.56L1106.82 700.61L1105.39 699.96L1094.97 694.78L1088.69 691.69L1081.47 687.64L1076.27 684.32L1073.4 682.61L1071.16 681.54L1059.62 674.35L1055.04 671.12L1049.49 666.95L1048.55 665.8L1045.41 663.38L1041.04 658.62L1040.38 657.37L1036.36 653.5L1034.87 651.15L1034.67 649.65L1032.53 647.76L1029.3 645.72L1026.25 644.58L1014.17 631.94L1013.89 631.52L1003.6 615.53L998.79 609.87L990.48 600.09L978.01 585.28L965.63 571.12L962.72 552.58L963.78 536.14L968.64 522.15L976.47 510.67L987.01 501.79L999.57 495.37L1013.9 491.26L1029.48 489.19L1046.18 488.82L1063.66 489.8L1081.85 491.67L1100.58 494.04L1119.87 496.4L1139.6 498.33L1159.82 499.32L1180.44 498.95L1201.4 496.75L1222.55 492.28L1243.72 485.19L1264.62 475.05L1284.91 461.69L1304.16 444.71L1321.94 424.19L1337.64 399.82L1328.82 378.12L1319.5 355.71L1330.4 330.13L1319.43 308.33L1326.38 280.93L1313.8 259.92L1316.61 231.23L1315.57 200.03L1310.79 167.18L1301.49 132.59L1288 97.24L1269.77 61.6L1269.54 61.14L1247.06 25.91L1246.7 25.34L1219.25 -9.43L1218.74 -10.07L1204.63 -24.99" stroke="#E5E7EB" stroke-linecap="round" stroke-linejoin="round"/>
<path opacity="0.3" d="M1239.67 733.96L1227.04 732.94L1226.67 733.3L1226.24 732.83L1204.03 729.06L1196.62 728.15L1187.88 726.71L1186.88 726.18L1175.71 723.78L1170.27 722.25L1147.5 715.66L1146.05 715.25L1140.18 713.57L1138.57 712.92L1127.45 708.47L1118.51 705.98L1108.18 702.99L1092.77 697.95L1087.05 694.78L1082.8 692.42L1072.47 685.92L1071.87 684.74L1063.07 678.92L1047.84 668.85L1043.06 665.69L1033.56 656.54L1018.2 640.31L1014.45 636.65L1014.37 636.57L1001.59 619.74L1001.41 619.51L1000.13 617.82L990.48 600.09L985.51 583.93L982.28 579.45L973.94 567.9L962.72 552.58L951.33 537.97L940.04 524.3L928.38 511.55L916.62 500L904.35 489.59L891.87 480.68L878.86 473.17L865.64 467.47L851.95 463.44L838.17 461.57L824.12 461.64L810.24 464.19L796.41 468.96L783.14 476.5L770.35 486.49L758.66 499.49L748.03 515.11L739.15 533.91L732.01 555.44L727.42 580.2L725.38 607.7L726.79 638.35L731.71 671.62L741.1 707.77L755.07 746.22L774.62 787.04L792.42 816.99" stroke="#E5E7EB" stroke-linecap="round" stroke-linejoin="round"/>
<path opacity="0.3" d="M572.41 816.99L566.68 806.01L538.19 732.74L520.07 663.26L510.95 597.88L509.99 537.52L515.93 482.07L527.93 432.22L544.89 387.57L566.02 348.61L566.25 311.07L568.85 275.64L573.47 241.83L579.64 210.02L587.16 179.69L595.55 151.16L604.73 123.95L614.24 98.33L624.04 73.89L633.7 50.83L643.19 28.82L652.07 7.99L660.32 -11.87L665.33 -24.99" stroke="#E5E7EB" stroke-linecap="round" stroke-linejoin="round"/>
<path opacity="0.3" d="M1340.87 141.34L1331.79 134.13L1317.64 122.53L1302.87 110.04L1288 97.24L1272.28 83.64L1256.29 69.79L1239.19 55.26L1221.65 40.58L1202.72 25.36L1183.1 10.11L1161.82 -5.47L1139.59 -20.92L1133.24 -24.99" stroke="#E5E7EB" stroke-linecap="round" stroke-linejoin="round"/>
<path opacity="0.3" d="M1127.38 708.09L1125.31 697.23L1122.64 675.83L1121.03 654.23L1120.29 632.4L1120.09 610.37L1120.29 588.09L1120.55 565.57L1120.74 542.77L1120.57 519.73L1119.87 496.4L1118.36 472.85L1115.9 449.06L1112.23 425.13L1107.19 401.08L1100.58 377.06L1092.23 353.12L1081.97 329.47L1069.65 306.22L1055.19 283.62L1038.43 261.85L1019.4 241.19L997.98 221.88L974.28 204.24" stroke="#E5E7EB" stroke-linecap="round" stroke-linejoin="round"/>
<path opacity="0.3" d="M1340.87 77.22L1330.74 73.04L1317.29 66.69L1303.89 59.84L1289.95 52.07L1276.01 43.86L1261.38 34.79L1246.7 25.34L1231.13 15.1L1215.38 4.54L1198.51 -6.69999L1181.31 -18.18L1170.79 -24.99" stroke="#E5E7EB" stroke-linecap="round" stroke-linejoin="round"/>
<path opacity="0.3" d="M479.97 816.99L475.67 807.43L448.26 721.89L432.65 641.13L427.25 565.39L431.05 495.76L442.61 432.05L460.89 374.99L455.08 337.22L451.26 301L449.17 265.82L448.51 232.19L449.13 199.65L450.67 168.68L453.03 138.86L455.8 110.63L458.9 83.62L461.87 58.24L464.61 34.19L466.65 11.79L467.84 -9.15L467.75 -24.99" stroke="#E5E7EB" stroke-linecap="round" stroke-linejoin="round"/>
<path opacity="0.3" d="M-2.78003 322.29L0.769972 313.47L30.37 249.8L35.46 238.64L36.72 235.87L40.77 228.32L74.02 171.89L82.13 157.86L83.54 155.41L84.14 154.36L84.91 152.27L85.06 150.22L84.55 148.23L107.96 115.09L116.22 103.4L134.17 77.99L149.2 60.47L163.98 44.68L169.55 39.63L177.23 30.7L188.41 18.84L214.03 -4.67999L216.26 -6.81998L236.13 -24.61L237.11 -24.25" stroke="#E5E7EB" stroke-linecap="round" stroke-linejoin="round"/>
<path opacity="0.3" d="M1039.72 655.64L1035.16 647.24L1025.48 626.88L1028.08 621.9L1033.01 618.77L1040.22 617.42L1049.28 617.67L1060.2 619.26L1072.73 621.91L1086.96 625.25L1102.77 628.9L1120.29 632.4L1139.44 635.3L1160.34 637.07L1182.88 637.19L1207 635.11L1232.51 630.27L1259.1 622.17L1286.37 610.22L1313.75 594.1L1340.62 573.32L1340.87 573.07" stroke="#E5E7EB" stroke-linecap="round" stroke-linejoin="round"/>
<path opacity="0.3" d="M1340.87 786L1331.93 787.11L1259.9 788.05L1190.54 780.89L1188.01 780.34L1124.01 766.52L1122.97 766.16L1117.78 764.39L1062.68 745.53L1060.26 744.38L1057.73 743.19L1006.41 718.9L1005.16 718.11L957.11 687.73L914.31 652.96L879.28 615.97L851.27 577.49L830.89 538.93L817.21 500.77L810.24 464.19L809.04 429.41L813.21 397.28L821.86 367.75L834.36 341.33L850 317.77L868.05 297.24L888.01 279.39L909.17 264.14L931.2 251.07L953.52 239.92" stroke="#E5E7EB" stroke-linecap="round" stroke-linejoin="round"/>
<path opacity="0.3" d="M-3.39001 319.5L-0.040019 312.06L28.19 249.77L39.18 225.53L67.54 177.9L71.82 171.84L75.86 166.2L76.43 165.22L80.34 159.31L81.8 157.66L84.91 152.27L85.88 151.5L120.25 103.8L120.31 103.6L131.64 87.67L133.2 85.86L134.29 84.3L136.59 81.64L150.1 66.29L167.76 44.83L173.58 37.08L175.23 35.16L180.13 29.47L187.97 20.38L188.27 17.86L211.41 -4.4L214.11 -7.01L232.79 -24.99" stroke="#E5E7EB" stroke-linecap="round" stroke-linejoin="round"/>
<path opacity="0.3" d="M1306.91 816.99L1299.62 813.12L1224.41 810.46L1223.49 810.32L1152.27 799.56L1149.55 798.84L1083.41 781.27L1082.18 780.78L1020.16 756.35L1017.53 754.95L1015.01 753.62L962.45 725.75L961.03 724.77L956.25 721.44L912.06 690.74L907.08 686.33L868.55 652.2L833.02 611.62L804.75 569.68L784.16 527.84L770.35 486.49L763.19 446.84L761.74 408.99L765.52 373.81L773.68 341.15L785.54 311.54L800.43 284.65L817.61 260.7L836.61 239.27L856.73 220.35L877.67 203.51L898.84 188.58L926.65 200.2L952.32 214.23L975.93 230.32L997.24 248.16L1016.37 267.5L1038.43 261.85L1059.97 256.75L1080.73 251.76L1100.6 246.6L1119.44 240.86L1137.1 234.29L1153.5 226.62L1168.38 217.59L1181.77 207.09L1193.27 194.85L1202.94 180.94L1210.29 165.11L1215.46 147.6L1217.78 128.16L1217.52 107.23L1213.89 84.58L1207.31 60.81L1196.85 35.76L1183.1 10.11L1165.1 -16.17L1157.88 -24.99" stroke="#E5E7EB" stroke-linecap="round" stroke-linejoin="round"/>
<path opacity="0.3" d="M1340.87 646.15L1334.4 651.1L1303.51 669.37L1273.01 682.89L1243.55 692.28L1215.67 698.02L1189.71 700.8L1165.92 701.19L1144.46 699.81L1125.31 697.23L1108.54 693.96L1094.03 690.5L1083.61 687.71" stroke="#E5E7EB" stroke-linecap="round" stroke-linejoin="round"/>
<path opacity="0.3" d="M2.26001 345.14L4.60001 338.01L44.26 249.96L89.42 172.25L138.57 104.51L190.59 45.78L244.34 -4.42L270.78 -24.99" stroke="#E5E7EB" stroke-linecap="round" stroke-linejoin="round"/>
<path opacity="0.3" d="M150.39 816.99L147.13 810.36L120.71 752.16L76.85 655.59L67.69 633.41L49.96 590.52L17.59 512.2L11.42 495.35L-31.25 378.91L-42.83 302.14L-50.75 231.11L-55.67 165.1L-57.87 103.69L-57.82 46.31L-55.7 -7.33L-54.35 -24.99" stroke="#E5E7EB" stroke-linecap="round" stroke-linejoin="round"/>
<path opacity="0.3" d="M1171.57 816.99L1165.92 812.42L1152.27 799.56L1140.42 787.6L1131.41 776.52L1128.86 775.71L1067.25 756.19L1066.12 755.67L1061.08 753.4L1009.14 729.91L1006.76 728.49L1004.23 726.98L956.83 698.64L911.99 663.67L874.06 625.86L844.02 586.65L821.06 546.7L805.5 507.35L796.41 468.96L793.58 432.64L796.11 398.45L803.43 367.15L814.76 338.56L829.38 313.1L846.66 290.44L865.88 270.67L886.59 253.39L908.12 238.47L930.22 225.51L952.32 214.23L974.28 204.24" stroke="#E5E7EB" stroke-linecap="round" stroke-linejoin="round"/>
<path opacity="0.3" d="M149.9 816.99L147.13 810.36L126.94 757.7L111.35 717.06L96.63 675.26L94.33 668.73L80.9 630.61L70.22 602.03L49.85 547.5L37.22 513.71L27.41 487.45L9.09997 412.29L-9.79004 346.44L-27.61 284.29L-31.41 268.17L-46.84 202.6L-55.67 165.1L-75.46 53.94L-84.64 -24.99" stroke="#E5E7EB" stroke-linecap="round" stroke-linejoin="round"/>
<path opacity="0.3" d="M1109.91 700.89L1108.54 693.96L1105.61 672.43L1103.81 650.74L1102.77 628.9L1102.36 606.89L1102.23 584.72L1102.25 562.34L1102.1 539.78L1101.64 516.99L1100.58 494.04L1098.76 470.88L1095.94 447.61L1091.95 424.22L1086.57 400.85L1079.64 377.53L1070.97 354.46L1060.42 331.7L1047.89 309.51L1033.21 288.01L1016.37 267.5" stroke="#E5E7EB" stroke-linecap="round" stroke-linejoin="round"/>
<path opacity="0.3" d="M1196.45 727.64L1194.39 721.14L1189.71 700.8L1186.39 680L1184.2 658.8L1182.88 637.19L1182.2 615.17L1181.92 592.76L1181.85 569.93L1181.7 546.69L1181.32 523.02L1180.44 498.95L1178.88 474.47L1176.41 449.63L1172.84 424.45L1167.95 399L1161.55 373.34L1153.43 347.6L1143.45 321.88L1131.4 296.36L1117.16 271.19L1100.6 246.6L1081.62 222.79L1060.15 200.07L1036.14 178.67L1009.63 158.94" stroke="#E5E7EB" stroke-linecap="round" stroke-linejoin="round"/>
<path opacity="0.3" d="M-4.25 315.58L-1.5 310.77L28.19 249.77L30.27 249.4L39.1 232.33L40.15 229.92L40.26 228.09L39.18 225.53L56.31 193.71L68.85 171.77L83.43 146.27L94.01 131.24L112.34 105.21L113.71 103.27L133.1 75.74L133.69 75.05L157.92 46.73L160.34 43.91L186.99 12.77L203.95 -3.62999L226.03 -24.99" stroke="#E5E7EB" stroke-linecap="round" stroke-linejoin="round"/>
<path opacity="0.3" d="M1259.59 734.98L1257.23 730.49L1249.62 711.72L1243.55 692.28L1238.84 672.17L1235.22 651.51L1232.51 630.27L1230.45 608.53L1228.83 586.26L1227.45 563.51L1226.07 540.24L1224.52 516.51L1222.55 492.28L1220 467.61L1216.62 442.49L1212.25 416.99L1206.65 391.13L1199.66 365.02L1191.04 338.7L1180.68 312.34L1168.3 286.02L1153.85 259.95L1137.1 234.29L1118 209.28L1096.4 185.14L1072.28 162.15L1045.58 140.6L1016.3 120.79L984.5 103.07" stroke="#E5E7EB" stroke-linecap="round" stroke-linejoin="round"/>
<path opacity="0.3" d="M218.75 816.99L215.37 813.48L181.01 775.51L149.59 739.17L144.19 626.04L151.47 522.16L169.41 427.28L196.3 341.98L230.54 265.64L270.65 198.51L315.44 139.81L363.63 89.56L414.38 46.94L415.33 46.3L466.65 11.79L467.96 11.09L519.83 -16.63L520.64 -24.99" stroke="#E5E7EB" stroke-linecap="round" stroke-linejoin="round"/>
<path opacity="0.3" d="M687.8 816.99L684.43 814.21L639.99 771.67L600.87 728.47L566.46 684.75L536.7 641.25L510.95 597.88L489.1 555.3L470.58 513.23L455.24 472.28L442.61 432.05L432.54 393.13L455.08 337.22L482.79 288.26L512.87 248.03L514.65 245.64L547.86 211.54L549.68 209.67L587.16 179.69L626.16 155.82L666.21 137.42L706.49 124.46L746.68 116.34L786.09 112.91L824.55 113.65L861.47 118.31L896.77 126.44L930.01 137.72L961.17 151.77L989.96 168.24L1016.38 186.8L1040.29 207.09L1060.15 200.07L1078.9 192.83L1096.4 185.14L1112.56 176.73L1127.14 167.36L1140.14 156.91L1151.21 145.14L1160.44 132.07L1167.34 117.49L1172.09 101.54L1174.07 84.04L1173.57 65.29L1169.81 45.14L1163.24 24.01L1152.96 1.81L1139.59 -20.92L1136.53 -24.99" stroke="#E5E7EB" stroke-linecap="round" stroke-linejoin="round"/>
<path opacity="0.3" d="M1340.87 732.94L1338.93 733.29L1337.22 733.51L1316.31 735.51L1311.16 736.95L1299.37 738.17L1296.96 738.38L1283.3 739.98L1252.89 737L1240.27 735.41L1226.74 734.23L1213.49 732.31L1204.45 731.59L1179.26 727.87L1166.19 726.41L1154.13 725.62L1144.08 725.34L1134.97 725.94L1121.15 720.64L1086.78 707.47L1081.6 704.79L1043.7 685.21L1043.68 685.19L1042 684.04L1007.22 660.06L997.9 651.83L976.62 633L972.71 628.41L952.84 605.07L951.83 603.48L935 577L923.5 549.76L917.38 523.84L916.62 500L920.26 478.46L928.01 459.68L939.02 443.67L952.86 430.57L968.83 420.21L986.51 412.45L1005.39 406.99L1025.13 403.5L1045.38 401.61L1065.93 400.85H1086.57L1107.19 401.08L1127.68 401.16L1147.97 400.59L1167.95 399L1187.56 395.96L1206.65 391.13L1225.12 384.19L1242.68 374.81L1259.22 362.87L1274.3 348.02L1287.74 330.4L1299 309.7L1307.91 286.29L1295.41 263.65L1282.1 240.86L1286.41 216.94L1271.33 195.07L1271.95 170.21L1269.51 143.68L1263.2 115.29L1253.4 85.85L1239.19 55.26L1238.56 54.18L1221.21 24.41L1220.86 23.94L1198.51 -6.69999L1182.56 -24.99" stroke="#E5E7EB" stroke-linecap="round" stroke-linejoin="round"/>
<path opacity="0.3" d="M216.32 816.99L215.37 813.48L198.32 700.16L170.08 662.43L144.19 626.04L120.56 591.93L132.5 488.63L154.63 395.21L185.17 311.1L222.52 236.6L265.34 170.95L312.27 114.17L362.33 65.43L414.42 24.58L467.84 -9.15L499.54 -24.99" stroke="#E5E7EB" stroke-linecap="round" stroke-linejoin="round"/>
<path opacity="0.3" d="M971.67 816.99L969.58 814.38L952.34 789.92L938.87 766.89L928.02 745.23L920.39 725.34L914.86 707.05L912.06 690.74L910.87 676.16L870.67 638.06L837.63 597.88L812.45 557.08L794.26 516.18L783.14 476.5L778.14 438.25L778.91 402.43L784.56 368.98L794.45 338.54" stroke="#E5E7EB" stroke-linecap="round" stroke-linejoin="round"/>
<path opacity="0.3" d="M686.15 816.99L684.43 814.21L656.81 757.54L637.29 703.63L624.75 652.66L618.68 605.39L618.01 561.68L622.25 522.13L630.45 486.39L642.15 454.95L656.58 427.31L673.3 403.89L691.68 384.09L711.34 368.27L731.8 355.81L752.7 346.97L773.68 341.15L794.45 338.54L807.85 310.86L824.01 286.23L842.4 264.28L862.29 245.05L883.31 228.1" stroke="#E5E7EB" stroke-linecap="round" stroke-linejoin="round"/>
<path opacity="0.3" d="M1094.68 693.44L1094.03 690.5L1090.72 668.84L1088.41 647.1L1086.96 625.25L1086.02 603.31L1085.47 581.24L1084.96 559.05L1084.37 536.71L1083.36 514.27L1081.85 491.67L1079.51 469L1076.23 446.25L1071.75 423.53L1065.93 400.85L1058.56 378.4L1049.5 356.21L1038.63 334.53L1025.77 313.44L1010.92 293.22L993.9 274.05L974.82 256.2L953.52 239.92" stroke="#E5E7EB" stroke-linecap="round" stroke-linejoin="round"/>
<path opacity="0.3" d="M132.15 87.08L133.59 84.8L134.42 82.5L134.59 80.26L134.17 77.99L133.1 75.74L131.44 73.43L129.15 71.13L126.27 68.78L122.77 66.43L118.68 64.05L113.96 61.74L108.64 59.44L102.67 57.3L96.08 55.25L88.8 53.54L80.88 52.03L72.2 51.09L62.83 50.51L52.63 50.8L41.7 51.66L29.84 53.74L17.19 56.64L3.53003 61.18L-10.97 66.83L-35.61 107.9" stroke="#E5E7EB" stroke-linecap="round" stroke-linejoin="round"/>
<path opacity="0.3" d="M1340.87 201.03L1339.33 199.31L1325.17 183.39L1310.79 167.18L1295.58 150.22L1279.96 133.07L1263.2 115.29L1245.82 97.42L1227 79.09L1207.31 60.81L1185.85 42.28L1163.24 24.01L1138.59 5.79L1112.5 -11.92L1091.01 -24.99" stroke="#E5E7EB" stroke-linecap="round" stroke-linejoin="round"/>
<path opacity="0.3" d="M84.55 148.23L83.43 146.27L81.67 144.33L79.31 142.4L76.31 140.48L72.7 138.57L68.47 136.7L63.63 134.86L58.16 133.15L52.06 131.51L45.31 130.15L37.94 128.96L29.86 128.24L21.14 127.84L11.68 128.2L1.52996 129.05L-9.41004 131.01L-21.08 133.71L-33.02 137.72" stroke="#E5E7EB" stroke-linecap="round" stroke-linejoin="round"/>
<path opacity="0.3" d="M39.76 226.36L38.6 224.7L36.82 223.12L34.39 221.58L31.34 220.09L27.65 218.65L23.35 217.28L18.4 216L12.83 214.81L6.61996 213.83L-0.220034 213.01L-7.71004 212.59L-15.85 212.44L-23.58 212.88" stroke="#E5E7EB" stroke-linecap="round" stroke-linejoin="round"/>
<path opacity="0.3" d="M617.39 816.99L616.01 815.75L575.09 774.6L538.19 732.74L505.34 690.82L475.98 648.69L450.12 606.99L427.25 565.39L407.38 524.56L390.05 484.06L375.24 444.57L393.71 377.77L418.74 318.37L449.17 265.82L482.48 222.34L483.88 220.52L521.99 181.79L561.07 150.94L562.48 149.84L604.73 123.95L647.85 104.16L691.43 89.81L734.68 80.79L777.35 76.5L818.8 76.72L858.89 80.96L897.11 88.9L933.38 100.11L967.38 114.24L999.04 130.93L1016.3 120.79L1032.21 110.53L1046.68 99.94L1059.46 88.84L1070.54 77.1L1079.57 64.57L1086.67 51.22L1091.32 36.91L1093.74 21.73L1093.31 5.57L1090.36 -11.38L1085.59 -24.99" stroke="#E5E7EB" stroke-linecap="round" stroke-linejoin="round"/>
<path opacity="0.3" d="M-5.34998 310.6L-4.81998 309.03L21.78 249.7L34.39 221.58L62.72 171.63L79.31 142.4L104.31 106.64L106.91 102.93L129.15 71.13L148.84 47.98L183.31 7.45L216.63 -24.99" stroke="#E5E7EB" stroke-linecap="round" stroke-linejoin="round"/>
<path opacity="0.3" d="M616.72 816.99L616.01 815.75L586.57 748.78L566.46 684.75L554.99 624.65L550.91 568.6L553.51 517.33L561.66 470.62L574.65 429.03L591.54 392.11L611.68 360.29L634.33 333.01L638.99 296.93L646.35 262.92L655.8 231.34L667 201.69L679.36 174.22L692.7 148.43L706.49 124.46L720.64 101.89L734.68 80.79L748.58 60.8L761.92 41.93L774.67 23.93L786.47 6.76L797.25 -9.76L806.29 -24.99" stroke="#E5E7EB" stroke-linecap="round" stroke-linejoin="round"/>
<path opacity="0.3" d="M1101.59 697.69L1100.38 697.17L1094.9 695.34L1082.38 690.11L1072.67 685.27L1071.91 684.92L1057.74 678.51L1043.42 672.5L1030.53 667.32L1018.16 663.13L1007.22 660.06L996.78 658.21L987.8 657.74L979.39 658.65L972.55 661.17L966.41 665.23L962.04 671.03L958.56 678.46L957.11 687.73L956.83 698.64L958.88 711.4L962.45 725.75L968.72 741.85L976.9 759.41L988.18 778.52L1001.81 798.86L1016.23 816.99" stroke="#E5E7EB" stroke-linecap="round" stroke-linejoin="round"/>
<path opacity="0.3" d="M1340.87 574L1340.62 573.32L1333.96 553.58L1327.78 533.02L1321.87 511.9L1316.07 490.05L1310.24 467.71L1304.16 444.71L1297.73 421.29L1290.71 397.27L1282.99 372.91L1274.3 348.02L1264.59 322.91L1253.53 297.4L1241.11 271.81L1226.97 246.03L1211.15 220.4L1193.27 194.85L1173.42 169.76L1151.21 145.14L1126.81 121.37L1099.85 98.57L1070.54 77.1L1038.6 57.19L1004.24 39.2L967.33 23.45L928.07 10.29L886.5 0.10999L842.82 -6.71001L797.25 -9.76001L750.01 -8.61001L701.54 -2.86001L652.07 7.98999L602.26 24.27L552.45 46.58L552.18 46.74L503.46 75.14L502.87 75.58L455.8 110.63L410.49 153.11L409.67 154.08L368.26 203.34L330.29 261.17L297.63 327.34L271.58 401.48L285.57 439.31L301.49 477.92L319.63 517.68L340.03 557.81L363.02 598.71L388.55 639.62L417.01 680.91L448.26 721.89L482.78 762.87L520.4 803.18L534.67 816.99" stroke="#E5E7EB" stroke-linecap="round" stroke-linejoin="round"/>
<path opacity="0.3" d="M1340.87 737.12L1340.56 737.97L1329.12 740.26L1320.2 742.92L1312.5 745.99L1307.15 748.95L1303.07 752.49L1241.38 750.31L1182.28 741.78L1127.97 727.28L1078.14 707.94L1071.56 704.41L1034.6 684.57L996.78 658.21L995.36 656.91L965.9 629.9L962.19 625.49L941.16 600.51L940.2 598.93L923.25 571.1L922.52 569.35L911.22 542.3L905.25 515.01L904.35 489.59L908.33 466.7L916.28 446.43L927.78 429.11L942.06 414.64L958.62 403.04L976.87 394.06L996.37 387.47L1016.69 382.93L1037.51 380.03L1058.56 378.4L1079.64 377.53L1100.58 377.06L1121.28 376.46L1141.62 375.38L1161.55 373.34L1180.92 370.01L1199.66 365.02L1217.58 358.03L1234.56 348.85L1250.27 337.14L1264.59 322.91L1277.05 305.84L1287.53 286.19L1295.41 263.65L1300.65 238.72L1286.41 216.94L1287.84 190.97L1285.61 162.76L1279.96 133.07L1270.04 101.79L1256.29 69.79L1256.05 69.36L1237.84 37.06L1237.42 36.47L1215.62 4.9L1215.38 4.54L1190.33 -24.99" stroke="#E5E7EB" stroke-linecap="round" stroke-linejoin="round"/>
<path opacity="0.3" d="M1340.87 737.17L1340.24 737.26L1329.12 740.26L1271.75 741.36L1261.3 743.19L1253.11 745.05L1246.07 747.55L1241.38 750.31L1237.94 753.85L1178.15 744.68L1121.96 729.68L1071.45 709.48L1026.21 685.17L1026.11 685.09L987.8 657.74L955.53 628.14L954.37 626.73L930.39 597.51L929.28 595.69L911.5 566.58L910.83 564.93L899.27 536.42L892.75 507.5L891.87 480.68L895.7 456.15L903.88 434.47L915.54 415.6L930.2 399.75L947.14 386.73L965.87 376.45L985.86 368.61L1006.69 362.87L1028.01 358.9L1049.5 356.21L1070.97 354.46L1092.23 353.12L1113.13 351.83L1133.57 350.11L1153.43 347.6L1172.64 343.91L1191.04 338.7L1208.55 331.7L1224.91 322.58L1240.04 311.25L1253.53 297.4L1265.31 281.14L1274.84 262.18L1282.1 240.86L1267.46 217.62L1271.33 195.07L1254.82 172.78L1237.18 150.57L1217.78 128.16L1196.97 106.04L1174.07 84.04L1149.49 62.61L1122.58 41.7L1093.74 21.73L1062.37 2.79L1028.9 -14.74L1005.67 -24.99" stroke="#E5E7EB" stroke-linecap="round" stroke-linejoin="round"/>
<path opacity="0.3" d="M106.65 687.42L94.87 655.39L83.5 623.48L73.57 594.21L60.34 555.19" stroke="#E5E7EB" stroke-linecap="round" stroke-linejoin="round"/>
<path opacity="0.3" d="M56.53 543.92L55.59 540.96L40.57 490.43L40.13 488.93L36.99 478.44L29.44 453.12L28.48 449.68L18.79 412.13L9.94 378.1L8.33 371.92L7.2 367.56L2.01 345.89L-0.00999069 339.81L-3.67 327.05L-7.32999 316.43L-9.79 306.74L-10.4 304.32L-14.08 289.81L-17.37 276.81L-21.78 255.01L-28.75 220.56L-36.42 182.66L-41.52 157.45L-43.91 141.17L-57.82 46.31L-63.87 -24.99" stroke="#E5E7EB" stroke-linecap="round" stroke-linejoin="round"/>
<path opacity="0.3" d="M-2.40002 310.14L24.82 249.73L36.82 223.12L66.08 171.7L81.67 144.33L108.67 105.87L110.6 103.12L131.44 73.43L153.73 47.31L156.82 43.69L185.43 10.16L199.12 -3.12L221.66 -24.99" stroke="#E5E7EB" stroke-linecap="round" stroke-linejoin="round"/>
<path opacity="0.3" d="M-33.07 137.07L-28.48 129.72L17.19 56.64L25.26 46.03L72.62 -16.31L85.56 -18.59L91.49 -24.99" stroke="#E5E7EB" stroke-linecap="round" stroke-linejoin="round"/>
<path opacity="0.3" d="M-6.58002 305.02L18.14 249.66L31.34 220.09L58.77 171.53L76.31 140.48L99.26 107.55L102.62 102.72L126.27 68.78L143.25 48.75L180.55 4.71001L210.95 -24.99" stroke="#E5E7EB" stroke-linecap="round" stroke-linejoin="round"/>
<path opacity="0.3" d="M27.19 454.17L23.97 443.19L16.78 418.68L5.16003 379.07L-1.45996 356.5L-5.62997 342.28L-10.91 320.74L-19.03 287.6L-26.65 256.55L-35.92 218.69L-38.87 203.29L-57.87 103.69L-72.05 -3.64L-69.89 -24.99" stroke="#E5E7EB" stroke-linecap="round" stroke-linejoin="round"/>
<path opacity="0.3" d="M192.38 19.03L217.24 -5.01L218.73 -6.61L237.1 -24.25" stroke="#E5E7EB" stroke-linecap="round" stroke-linejoin="round"/>
<path opacity="0.3" d="M1112.85 702.33L1109.48 700.8L1094.63 693.73L1085.34 688.98L1082.66 688.54L1072.47 685.92L1058.94 679.17L1057.74 678.51L1056.37 677.54L1051.48 674.05L1048.68 672.06L1036.43 663.35L1027.99 657.33L1026.41 655.85L1004.62 635.49L1004.35 635.24L1003.7 634.46L986.02 613.02L973.41 591.47L965.63 571.12L953.65 557.82L941.52 545.39L929.6 534.07L917.38 523.84L905.25 515.01L892.75 507.5L880.3 501.7L867.53 497.47L854.89 495.25L842.07 494.86L829.6 496.78L817.21 500.77L805.5 507.35L794.26 516.18L784.16 527.84L775.03 541.9L767.64 558.92L761.81 578.44L758.42 600.95L757.32 625.95L759.46 653.87L764.74 684.16L774.15 717.11L787.65 752.15L806.27 789.4L823.16 816.99" stroke="#E5E7EB" stroke-linecap="round" stroke-linejoin="round"/>
<path opacity="0.3" d="M1148.5 720.84L1119.9 711.85L1119.74 711.79L1107.58 709.5L1096.25 708.07L1086.78 707.47L1078.14 707.94L1071.45 709.48L1065.67 712.24L1061.95 716.23L1059.24 721.54L1058.79 728.19L1059.51 736.18L1062.68 745.53L1067.25 756.19L1074.5 768.13L1083.41 781.27L1095.24 795.51L1109.01 810.77L1115.57 816.99" stroke="#E5E7EB" stroke-linecap="round" stroke-linejoin="round"/>
<path opacity="0.3" d="M1073.4 682.61L1073.21 682.51L1070.93 680.49L1067.26 677.71L1061.74 674.03L1060.61 673.5L1054.83 670.07L1049.95 666.91L1048.55 665.8L1045.41 663.38L1034.03 655.76L1018.64 645.15L1004.35 635.24L990.4 626.12L977.43 617.98L964.69 610.88L952.84 605.07L941.16 600.51L930.39 597.51L919.82 595.98L910.23 596.26L900.97 598.21L892.89 602.19L885.35 607.97L879.28 615.97L874.06 625.86L870.67 638.06L868.55 652.2L868.71 668.64L870.61 686.98L875.32 707.53L882.32 729.85L892.72 754.15L906.05 779.98L923.4 807.43L930.41 816.99" stroke="#E5E7EB" stroke-linecap="round" stroke-linejoin="round"/>
<path opacity="0.3" d="M1175.71 723.78L1174.76 723.6L1170.21 721.95L1155.93 717.92" stroke="#E5E7EB" stroke-linecap="round" stroke-linejoin="round"/>
<path opacity="0.3" d="M1283.8 736.12L1277.63 736.02L1259.51 735.86L1259.38 736.73L1243.55 736.66L1229.65 736.45L1216.78 736.66L1205.99 737.02L1196.26 738.06L1188.72 739.49L1182.28 741.78L1178.15 744.68L1175.17 748.55L1174.61 753.15L1175.33 758.8" stroke="#E5E7EB" stroke-linecap="round" stroke-linejoin="round"/>
<path opacity="0.3" d="M1040.55 657.74L1039.42 657.3L1038.15 656.23L1037.53 655.38L1029.79 648.23L1029.47 645.62L1022.27 634.96L1017.11 623.73L1015.27 614.25L1016.67 606.72L1020.66 601.2L1027.12 597.68L1035.54 596.03L1045.87 596.05L1057.73 597.5L1071.19 600.03L1086.02 603.31L1102.36 606.89L1120.09 610.37L1139.34 613.23L1160.03 615.02L1182.2 615.17L1205.72 613.19L1230.45 608.53L1256.08 600.67L1282.23 589.18L1308.4 573.54L1333.96 553.58L1340.87 546.56" stroke="#E5E7EB" stroke-linecap="round" stroke-linejoin="round"/>
<path opacity="0.3" d="M1229.93 733.64L1229.04 733.55L1226.58 733.1L1223.12 732.62L1222.24 732.54L1219.79 732.35L1207.38 730.97L1196.78 728.67L1187.18 726.59L1179.86 725L1179.27 724.85L1178.57 724.67L1167.22 722.19L1166.11 721.99L1164.8 721.7L1164.46 721.59L1147.76 717.04L1133.69 714.64L1119.74 711.79L1110.39 707.59L1109.07 706.99L1096.39 701.29L1079 693.46L1077.66 692.68L1064.76 685.07L1043.42 672.5L1042.23 671.57L1041.58 671.07L1038.8 668.9L1014.15 649.75L1013.15 648.75L990.4 626.12L989.25 624.56L972.82 602.46L960.49 579.45L948.09 568.45L935.61 558.46L923.5 549.76L911.22 542.3L899.27 536.42L887.15 532.01L875.4 529.49L863.59 528.66L852.32 530L841.19 533.26L830.89 538.93L821.06 546.7L812.45 557.08L804.75 569.68L798.79 585.02L794.27 602.65L792.1 623.04L792 645.71L794.96 671.05L800.74 698.54L810.37 728.46L823.65 760.28L841.64 794.11L856.28 816.99" stroke="#E5E7EB" stroke-linecap="round" stroke-linejoin="round"/>
<path opacity="0.3" d="M1036.61 652.22L1035.83 651.29L1035.5 650.86L1034.03 649.46L1032.53 647.76L1030.66 644.49L1028.75 641.57L1025.79 633.76L1023.82 630.1L1015.27 614.25L1005.52 595.02L996.03 576.11L986.94 557.63L977.77 539.6L968.64 522.15L959.13 505.31L949.35 489.24L938.93 473.95L928.01 459.68L916.28 446.43L903.88 434.47L890.59 423.79L876.56 414.75L861.69 407.3L846.14 401.88L829.9 398.37L813.21 397.28L796.11 398.45L778.91 402.43L761.74 408.99L745 418.71L728.85 431.3L713.81 447.36L700.06 466.5L688.25 489.31L678.6 515.36L671.87 545.15L668.3 578.21L668.8 614.93L673.64 654.75L683.84 697.89L699.7 743.72L722.28 792.19L736.89 816.99" stroke="#E5E7EB" stroke-linecap="round" stroke-linejoin="round"/>
<path opacity="0.3" d="M1036.92 652.59H1036.22L1034.92 651.2L1034.67 649.65L1025.79 633.76L1025.48 626.88L1016.67 606.72L1008.27 586.8L1000.35 567.17L992.44 547.9L984.62 529.05L976.47 510.67L968.07 492.87L959.04 475.68L949.46 459.27L939.02 443.67L927.78 429.11L915.54 415.6L902.36 403.43L888.13 392.63L872.93 383.55L856.74 376.17L839.69 370.93L821.86 367.75L803.43 367.15L784.56 368.98L765.52 373.81L746.52 381.43L727.94 392.44L710.03 406.55L693.29 424.37L678.02 445.54L664.84 470.65L654.08 499.26L646.5 531.91L642.47 568.08L642.88 608.17L648.15 651.61L659.29 698.56L676.72 748.35L701.54 800.86L711.21 816.99" stroke="#E5E7EB" stroke-linecap="round" stroke-linejoin="round"/>
<path opacity="0.3" d="M1039.45 656.88L1038.15 656.23L1029.7 649.27L1026.29 644.59L1026.21 643.63L1014.17 631.94" stroke="#E5E7EB" stroke-linecap="round" stroke-linejoin="round"/>
<path opacity="0.3" d="M1040.39 657.4L1036.89 653.67L1036.9 652.95L1036.52 651.92L1034.72 649.37L1031.18 645.41L1029.06 642.4L1025.95 637.53L1022.63 632.36L1017.11 623.73L1014.33 619.26L1005.68 605.32L1005.52 595.02L1008.27 586.8L1013.83 580.73L1021.56 576.75L1031.34 574.75L1042.72 574.51L1055.68 575.73L1069.91 578.11L1085.47 581.24L1102.23 584.72L1120.29 588.09L1139.56 590.89L1160.14 592.61L1181.92 592.76L1204.88 590.82L1228.83 586.26L1253.5 578.65L1278.56 567.45L1303.51 552.39L1327.78 533.02L1340.87 519.49" stroke="#E5E7EB" stroke-linecap="round" stroke-linejoin="round"/>
<path opacity="0.3" d="M-2.39001 324.05L-0.78002 319.41L1.13999 314.58L30.27 249.4L40.01 227.23L71.82 171.84L84.8 149.23L117.59 104.28L118.15 103.49L118.92 102.4L121.28 99.07L126.59 92.56L129.1 90.01L134.42 82.5L134.91 81.94L140.78 75.13L167.76 44.83L168.71 44.42L180.5 30.43L183.01 27.85L185 26.11L185.94 25.04L187.36 23.02L190.44 20.06L216.67 -4.94999L219.06 -6.58L238.22 -24.99" stroke="#E5E7EB" stroke-linecap="round" stroke-linejoin="round"/>
<path opacity="0.3" d="M1121.49 709.66L1110.78 705.29L1092.77 697.95L1079 693.46L1065.92 689.79L1054.47 686.98L1043.7 685.21L1034.6 684.57L1026.21 685.17L1019.59 687.11L1013.76 690.44L1009.85 695.28L1006.89 701.59L1006.06 709.5L1006.41 718.9L1009.14 729.91L1013.32 742.37L1020.16 756.35L1028.79 771.65L1040.41 788.29L1054.16 806.04L1064.11 816.99" stroke="#E5E7EB" stroke-linecap="round" stroke-linejoin="round"/>
<path opacity="0.3" d="M-2.23999 324.74L0.72001 316.22L0.86001 315.83L1.15001 314.61L31.15 249.81L39.1 232.33L40.13 230.26L40.93 228.86L73.61 171.88L80.34 159.31L85.23 150.9L119.17 104L119.77 103.7L120.31 103.6L131.64 87.67L133.59 84.8L134.29 84.3L136.59 81.64L147.12 69.12L167.57 45.41L168.71 44.42L183.01 27.85L187.34 23.21L191.79 19.42L216.47 -4.93L217.8 -6.69L236.98 -24.61L237.87 -24.99" stroke="#E5E7EB" stroke-linecap="round" stroke-linejoin="round"/>
<path opacity="0.3" d="M1339.05 733.24L1338.15 733.39L1337.16 733.52L1311.34 736.18L1279.42 736.81L1259.72 736.25L1248.73 734.97L1240.07 734.17L1232.68 733.39L1226.32 733.07L1210.04 731.56L1194.13 729.51L1179.2 727.85L1173.38 726.16L1159.66 722.18L1148.31 718.46L1147.74 716.89L1145.77 716.25L1130.31 711.28L1127.82 710.35L1118.51 705.98L1110.09 701.8L1106.21 700.28L1095.04 695.12L1088.69 691.69L1081.47 687.64L1071.23 681.87L1058.69 674.69L1056.48 672.99L1056.18 671.53L1054.22 668.61L1051.54 660.47L1045.41 638.91L1040.22 617.42L1035.54 596.03L1031.34 574.75L1027.21 553.61L1023.13 532.62L1018.7 511.83L1013.9 491.26L1008.4 470.96L1002.15 451L994.87 431.47L986.51 412.45L976.87 394.06L965.87 376.45L953.41 359.77L939.42 344.21L923.89 329.93L906.77 317.22L888.16 306.2L868.05 297.24L846.66 290.44L824.01 286.23L800.43 284.65L776.03 286.22L751.21 290.88L726.19 299.22L701.43 311.1L677.29 327.13L654.27 347.09L653.31 386.2L656.58 427.31L664.84 470.65L678.6 515.36L698.7 561.42L725.38 607.7L756.29 649.57L759.46 653.87L797.8 695.36L800.74 698.54L845.98 737.7L849.87 741.07L902.82 777.74L906.05 779.98L965.29 812.06L969.58 814.38L975.91 816.99" stroke="#E5E7EB" stroke-linecap="round" stroke-linejoin="round"/>
<path opacity="0.3" d="M83.54 155.41L84 154.76L84.81 153.62L86.34 151.38L119.77 103.7L126.59 92.56L134.59 80.26L163.07 47.16L163.98 44.68L187.92 15.37L208.05 -4.05L211.36 -7.24L229.74 -24.99" stroke="#E5E7EB" stroke-linecap="round" stroke-linejoin="round"/>
<path opacity="0.3" d="M1041.89 658.78L1041.56 658.51L1041.46 658.44L1041.02 657.54L1039.58 655.59L1038.44 654.53L1036.9 652.95L1034.87 651.22L1032.09 648.04L1029.47 645.62L1026.17 642.83L1025.49 641.96L1017.07 631.42L1009.52 617.55L1005.8 612.41L997.19 600.5L994.94 587.28L996.03 576.11L1000.35 567.17L1007.15 560.49L1016.3 556.02L1027.21 553.61L1039.79 553.02L1053.65 553.98L1068.79 556.11L1084.96 559.05L1102.25 562.34L1120.55 565.57L1139.95 568.22L1160.37 569.85L1181.85 569.93L1204.24 567.98L1227.45 563.51L1251.18 556.04L1275.16 545.21L1298.89 530.54L1321.87 511.9L1340.87 491.69" stroke="#E5E7EB" stroke-linecap="round" stroke-linejoin="round"/>
</g>
</g>
</g>
<rect y="718" width="1184" height="74" fill="url(#paint0_linear_5_33)"/>
<rect x="1184" y="73.9999" width="1184" height="74" transform="rotate(180 1184 73.9999)" fill="url(#paint1_linear_5_33)"/>
</g>
<defs>
<linearGradient id="paint0_linear_5_33" x1="592" y1="718" x2="592" y2="792" gradientUnits="userSpaceOnUse">
<stop stop-color="white" stop-opacity="0"/>
<stop offset="0.71501" stop-color="#F5F5F4"/>
<stop offset="1" stop-color="#F5F5F4"/>
</linearGradient>
<linearGradient id="paint1_linear_5_33" x1="1776" y1="73.9999" x2="1776" y2="148" gradientUnits="userSpaceOnUse">
<stop stop-color="white" stop-opacity="0"/>
<stop offset="0.71501" stop-color="#F5F5F4"/>
<stop offset="1" stop-color="#F5F5F4"/>
</linearGradient>
<clipPath id="clip0_5_33">
<rect width="1184" height="792" fill="white"/>
</clipPath>
</defs>
</svg>
